<?xml version="1.0" encoding="utf-8"?>
<!-- Generator: Adobe Illustrator 26.0.3, SVG Export Plug-In . SVG Version: 6.00 Build 0)  -->
<svg version="1.1" id="Ballon1" xmlns="http://www.w3.org/2000/svg" xmlns:xlink="http://www.w3.org/1999/xlink" x="0px" y="0px"
	 viewBox="0 0 255.1 255.1" style="enable-background:new 0 0 255.1 255.1;" xml:space="preserve">
<style type="text/css">
#Ballon1:hover .st1 {fill: silver;}
	.st0{fill:none;
	stroke:#A67C52;
	stroke-width:1.5;
	stroke-linecap:round;
	stroke-linejoin:round;
	stroke-miterlimit:10;}
	.st1{fill:#A67C52;}
</style>
<!-- add our own JS inside the svg-->
<script>
	//define the variables first (the elements you want the user to interact with)
	let theBallon1 = document.querySelector("#Ballon1");

	function logMyId() { console.log('clicked on an element: ', this.id);}

	//define the user events that drive interactivity (click, hover, whatever)
	theBallon1.addEventListener("click", logMyId);
</script>

<g id="Ballon2">
	<path id="ballon3" class="st0" d="M196.7,93.2c-0.6,41.5-34.7,74.7-76.2,74.1s-74.7-34.7-74.1-76.2S81.1,16.4,122.6,17
		C164.1,17.5,197.3,51.7,196.7,93.2z M99.4,230.3l42.3,0.3l2.5-15.5h-47L99.4,230.3z M100.1,235h41l5.9-35H95L100.1,235z
		 M123.7,167.1c-11.4,0-24.1-2.3-33.8-6.9l19,39.5h24.8l18-38.7C143.2,164.3,133.5,167.1,123.7,167.1z M121.5,167.3
		c-29.5,0-55.1-17-67.4-41.8H54l40.8,74.3H147l42-74.3h-0.1C176.6,150.2,151,167.3,121.5,167.3z M67.2,90.9
		c0.3-24.1,7.6-46.6,19.8-65.4C63.6,38.3,47.6,63,47.2,91.6c-0.4,29.4,17.3,55,41.4,68.2C75.7,140,66.8,116.3,67.2,90.9z
		 M154.6,159.8c24.3-13.3,42.4-39.1,42-68.7c-0.4-28.8-18-53.5-41.6-66.4c12.3,19,21.1,41.4,21.5,65.7
		C176.8,116,167.5,139.8,154.6,159.8z M103.1,92.8c-2,48,12,74.1,12,74.1h15.3c0,0,13.4-32.2,12.7-70c-0.7-35.7-13.3-79.6-13.3-79.6
		h-14.7C115.1,17.3,105.1,44.7,103.1,92.8z"/>
	<g id="stars">
		<path class="st1" d="M72.8,69.8c0-12.5,10.1-22.7,22.7-22.7c4.9,0,9.4,1.5,13.1,4.1c-4.8-4.8-11.4-7.8-18.8-7.8
			c-14.6,0-26.4,11.8-26.4,26.4s11.8,26.4,26.4,26.4c7.3,0,14-3,18.8-7.8c-3.7,2.6-8.2,4.1-13.1,4.1C83,92.5,72.8,82.4,72.8,69.8z"
			/>
		<polygon class="st1" points="184.4,101 172,105.2 169.4,92.4 166.8,105.2 154.4,101 164.2,109.7 154.4,118.4 166.8,114.2
			169.4,127.1 172,114.2 184.4,118.4 174.6,109.7 		"/>
		<polygon class="st1" points="135.2,114.5 122.8,118.7 120.2,105.9 117.6,118.7 105.1,114.5 115,123.2 105.1,131.9 117.6,127.7
			120.2,140.5 122.8,127.7 135.2,131.9 125.4,123.2 		"/>
		<polygon class="st1" points="132.2,72.1 123.8,74.9 122.1,66.2 120.3,74.9 111.9,72.1 118.5,78 111.9,83.8 120.3,81 122.1,89.7
			123.8,81 132.2,83.8 125.6,78 		"/>
		<polygon class="st1" points="93.4,132.4 87.7,134.3 86.5,128.4 85.3,134.3 79.6,132.4 84.1,136.3 79.6,140.3 85.3,138.4
			86.5,144.3 87.7,138.4 93.4,140.3 88.9,136.3 		"/>
		<polygon class="st1" points="168.5,59.7 162.9,61.6 161.7,55.8 160.5,61.6 154.8,59.7 159.3,63.7 154.8,67.7 160.5,65.8
			161.7,71.6 162.9,65.8 168.5,67.7 164.1,63.7 		"/>
	</g>
</g>
</svg>
