<?xml version="1.0" encoding="utf-8"?>
<!-- Generator: Adobe Illustrator 26.0.3, SVG Export Plug-In . SVG Version: 6.00 Build 0)  -->
<svg version="1.1" id="Bird1" xmlns="http://www.w3.org/2000/svg" xmlns:xlink="http://www.w3.org/1999/xlink" x="0px" y="0px"
	 viewBox="0 0 255.1 255.1" style="enable-background:new 0 0 255.1 255.1;" xml:space="preserve">
<style type="text/css">
  #Bird1:hover .st0 {fill: silver;}
	.st0{fill:#FFFFFF;}
	.st1{fill:#A67C52;}
</style>

<!-- add our own JS inside the svg-->
<script>
	//define the variables first (the elements you want the user to interact with)
	let theBird = document.querySelector("#Bird1");

	function logMyId() { console.log('clicked on an element: ', this.id);}

	//define the user events that drive interactivity (click, hover, whatever)
	theBird.addEventListener("click", logMyId);
</script>

<g id="Body">
	<path class="st0" d="M193.1,219.8c-0.3,0-0.6-0.1-0.8-0.3c-8.9-7.2-20.9-9.2-31.6-5.4l-1,0.4c-7.8,2.4-16,3.6-24.2,3.5
		c-13.9,0-27.6-3.5-39.8-10.1l-0.9-0.4c-7.6-4.1-16.1-6.3-24.7-6.4c-2,0-4,0.1-6,0.4l-1.4,0.3c-16.2,2.3-32.4-4.1-42.7-16.9
		c-0.4-0.5-0.4-1.1,0-1.6c0.4-0.5,1-0.6,1.5-0.3l1.6,0.8c12,4.8,25.4,5,37.5,0.4c-5.6-0.9-11.1-2.4-16.4-4.4l-3.3-1.4
		c-13.9-6.5-24.4-18.4-29.1-33c-0.3-0.5-0.3-1.1,0.1-1.6c0.2-0.2,0.4-0.3,0.6-0.4c0.5-0.1,1.1,0.1,1.4,0.6
		c21.2,19.1,48.8,29.7,77.3,29.7l2.5,0.1c10.6,0,19.2-8.6,19.2-19.3c0-0.6,0.4-14,15.6-22.2l0.3-0.2c16.2-8.8,30.1-21.3,40.4-36.6
		c0.1-0.1,0.1-0.1,0.2-0.2l1.8-1.7c17.6-15.5,29.4-31.2,38.4-51.1l0.9-2.2c0.1-0.3,0.4-0.5,0.7-0.7c11-4.7,22.4-8.1,34.1-10.2
		c0.4-0.1,0.7,0,1,0.3c0.3,0.2,0.4,0.6,0.4,1v5.7c0,53.6-27.1,102.3-72.4,130.4l-2.1,1.4c-1.1,0.7-2.1,1.4-2.4,1.6
		c-1.9,1.9-3,4.4-3,7.1c-0.2,3.4,1.4,6.7,4.2,8.7l0.3,0.2c12.2,5.4,20.8,16.7,22.6,29.9l0.3,2.6c0,0.5-0.2,1-0.6,1.2
		C193.5,219.8,193.3,219.8,193.1,219.8z"/>
</g>
<g id="Bird">
	<path class="st1" d="M193.1,219.9c-0.3,0-0.6-0.1-0.8-0.3c-8.9-7.2-20.9-9.2-31.6-5.4l-1,0.4c-7.8,2.4-16,3.6-24.2,3.5
		c-13.9,0-27.6-3.5-39.8-10.1l-0.9-0.4c-7.6-4.1-16.1-6.3-24.7-6.4c-2,0-4,0.1-6,0.4l-1.4,0.3c-16.2,2.3-32.4-4.1-42.7-16.9
		c-0.4-0.5-0.4-1.1,0-1.6c0.4-0.5,1-0.6,1.5-0.3l1.6,0.8c12,4.8,25.4,5,37.5,0.4c-5.6-0.9-11.1-2.4-16.4-4.4l-3.3-1.4
		c-13.9-6.5-24.4-18.4-29.1-33c-0.3-0.5-0.3-1.1,0.1-1.6c0.2-0.2,0.4-0.3,0.6-0.4c0.5-0.1,1.1,0.1,1.4,0.6
		C35.2,163.4,62.7,174,91.3,174l2.5,0.1c10.6,0,19.2-8.6,19.2-19.3c0-0.6,0.4-14,15.6-22.2l0.3-0.2c16.2-8.8,30.1-21.3,40.4-36.6
		c0.1-0.1,0.1-0.1,0.2-0.2l1.8-1.7c17.6-15.5,29.4-31.2,38.4-51.1l0.9-2.2c0.1-0.3,0.4-0.5,0.7-0.7c11-4.7,22.4-8.1,34.1-10.2
		c0.4-0.1,0.7,0,1,0.3c0.3,0.2,0.4,0.6,0.4,1v5.7c0,53.6-27.1,102.3-72.4,130.4l-2.1,1.4c-1.1,0.7-2.1,1.4-2.4,1.6
		c-1.9,1.9-3,4.4-3,7.1c-0.2,3.4,1.4,6.7,4.2,8.7l0.3,0.2c12.2,5.4,20.8,16.7,22.6,29.9l0.3,2.6c0,0.5-0.2,1-0.6,1.2
		C193.5,219.9,193.3,219.9,193.1,219.9z M171.7,209.9c7.1,0,14,2.1,19.9,6.1c-1.8-12.3-9.8-22.8-21.2-27.8l-0.2-0.1l-0.4-0.3
		c-3.4-2.5-5.4-6.5-5.3-10.7c0-3.4,1.4-6.6,3.8-8.9l0.2-0.1c0,0,1.2-0.9,2.5-1.8l2.1-1.4c44.6-27.6,71.3-75.6,71.3-128.3v-4.1
		c-10.9,2.1-21.5,5.3-31.7,9.6l-0.7,1.8C202.8,64,190.7,80,172.9,95.7l-1.7,1.6c-11.3,16.3-24,27.8-41.1,37.3l-0.4,0.2
		c-13.9,7.5-14.3,19.9-14.3,20.1c0,12-9.7,21.7-21.7,21.7l-2.5-0.1c-27.6,0-54.4-9.7-75.6-27.4c5,12.1,14.4,21.8,26.3,27.4l3.2,1.3
		c6.3,2.4,12.9,4,19.6,4.8c0.3,0,0.6,0.2,0.8,0.5c0.2,0.3,0.3,0.6,0.3,0.9v0.3c0,0.4-0.3,0.8-0.7,1c-12.4,5.8-26.5,6.6-39.5,2.4
		c9.7,9.5,23.3,13.9,36.7,12l1.4-0.3c2.1-0.3,4.2-0.4,6.4-0.4c9,0.1,17.8,2.3,25.8,6.6l0.9,0.4c11.9,6.4,25.2,9.8,38.7,9.8
		c7.9,0.1,15.8-1.1,23.4-3.4l1-0.4C163.7,210.6,167.7,209.9,171.7,209.9z"/>
	<path class="st1" d="M127,109.6c0,0-78.6-0.3-78.9-0.3c-4.1,0.6-7.3,0.2-9.9-1l-2.3-1.3c-5.8-4.1-7.2-12.1-3.1-17.9
		c0-0.1,0.1-0.1,0.1-0.2c2-2.7,4.9-4.4,8.2-4.9c6.9-0.9,13.2,3.9,14.2,10.7V95c0.3,1.9-0.2,3.8-1.4,5.3c-1.3,1.5-3,2.5-5,2.7
		c-4.1,0.6-7.9-2.3-8.5-6.4v-0.1c-0.2-1.7,0.8-3.8,2.7-4.1c1.8-0.2,3.4,1,3.6,2.7c0.2,1.8-1,3.4-2.7,3.6c-0.5,0.1-0.9,0.5-0.8,1
		c0.1,0.5,0.5,0.9,1,0.8c0,0,0,0,0.1,0c2.8-0.2,4.9-2.7,4.6-5.5s-2.7-4.9-5.5-4.6c-0.2,0-0.4,0-0.6,0.1c-1.4,0.2-2.6,1-3.3,2.2
		c-0.8,1.2-1.1,2.5-0.9,3.9V97c0.7,5.1,5.5,8.7,10.6,7.9c5.3-0.8,8.7-5.1,8-10.2l0-0.3c-1.1-7.9-8.3-13.4-16.2-12.4c0,0,0,0,0,0
		c-3.8,0.5-7.2,2.6-9.4,5.6c-4.8,6.5-3.4,15.7,3.1,20.5c0.1,0.1,0.2,0.2,0.3,0.2l2.4,1.4c2.2,1,4.7,1.6,7.1,1.5H127
		c0.5,0,0.9-0.4,0.9-0.9C128,110,127.5,109.6,127,109.6z"/>
	<path class="st1" d="M150.9,94.9c0,0-56.2-0.2-56.4-0.2c-2.3,0.5-4.7,0.2-6.9-0.7l-1.6-1c-2-1.4-3.3-3.6-3.7-6
		c-1-4.7,1.9-9.3,6.6-10.3c4.7-1,9.3,1.9,10.3,6.6c0.1,0.4,0.2,0.9,0.2,1.3v0.2c0.4,2.7-1.5,5.1-4.2,5.4c-0.1,0-0.1,0-0.2,0
		c-2.8,0.4-5.4-1.6-5.8-4.4c0,0,0,0,0,0c-0.2-1.2,0.5-2.3,1.7-2.6c1.1-0.2,2.1,0.6,2.3,1.7s-0.6,2.1-1.7,2.3c-0.5,0.1-0.8,0.5-0.8,1
		c0.1,0.5,0.5,0.8,1,0.8c2.1-0.3,3.6-2.2,3.4-4.3c-0.3-2.1-2.2-3.6-4.3-3.4c-0.1,0-0.1,0-0.2,0c-2.2,0.5-3.6,2.6-3.2,4.8
		c0.5,3.8,4,6.5,7.8,6c0.1,0,0.2,0,0.2,0c3.7-0.4,6.4-3.7,5.9-7.4c0,0,0-0.1,0-0.1v-0.2c-0.8-5.7-6.1-9.7-11.9-8.9
		s-9.7,6.1-8.9,11.9l0,0c0.4,3,2.1,5.6,4.5,7.3l1.8,1c1.6,0.8,3.4,1.2,5.2,1.1h59c0.5,0.1,1-0.3,1-0.8c0.1-0.5-0.3-1-0.8-1
		C151.1,94.9,151,94.9,150.9,94.9L150.9,94.9z"/>
	<path class="st1" d="M112.7,86.6h22.2c0.5,0,0.9-0.4,0.9-0.9c0-0.5-0.4-0.9-0.9-0.9c0,0,0,0,0,0h-22.2c-0.5,0-0.9,0.4-0.9,0.9
		C111.7,86.2,112.1,86.6,112.7,86.6C112.7,86.6,112.7,86.6,112.7,86.6z"/>
	<path class="st1" d="M125.8,121.9c0,0-57.4,0.1-57.5,0.1c-2.3-0.3-4.7,0.1-6.8,1.1l-1.8,1c-4.9,3.4-6,10.1-2.6,15
		c0.1,0.1,0.1,0.2,0.2,0.2c1.9,2.7,5.1,4.3,8.4,4.2c5.3,0,9.7-3.9,10.4-9.1v-0.2c0.3-1.8-0.2-3.6-1.3-5c-1.2-1.4-2.8-2.3-4.6-2.5
		c-3.8-0.5-7.3,2.1-7.9,5.9c0,0,0,0.1,0,0.1c-0.1,1,0.1,2.1,0.7,3c0.6,0.9,1.5,1.6,2.6,1.7c1,0.1,2.1-0.1,2.9-0.7
		c1.7-1.3,2.1-3.7,0.9-5.4c-0.6-0.9-1.6-1.5-2.7-1.6c-0.5-0.1-1,0.3-1,0.8c-0.1,0.5,0.3,1,0.8,1c1.1,0.2,1.9,1.2,1.7,2.3
		c-0.2,1.1-1.2,1.9-2.3,1.7c-0.5-0.1-1-0.4-1.3-0.9c-0.3-0.5-0.5-1.2-0.4-1.8c0.2-1.3,0.9-2.6,2-3.4c1.1-0.8,2.4-1.2,3.8-1
		c1.3,0.2,2.5,0.8,3.4,1.9c0.8,1,1.2,2.3,1,3.6v0.2c-0.7,4.8-5,8.1-9.8,7.5c-2.3-0.3-4.3-1.6-5.7-3.4c-2.9-4-2-9.5,1.9-12.5
		c0,0,0,0,0.1,0l1.6-1c2.2-1,4.6-1.2,7-0.7c0.3,0,56.4-0.2,56.4-0.2c0.5,0,0.9-0.4,0.9-0.9c0-0.5-0.4-0.9-0.9-0.9L125.8,121.9z"/>
	<path class="st1" d="M109.8,132.1H87.5c-0.5,0.1-0.9,0.5-0.8,1c0,0.4,0.4,0.8,0.8,0.8h22.2c0.5-0.1,0.9-0.5,0.8-1
		C110.5,132.5,110.2,132.1,109.8,132.1z"/>
</g>
</svg>
