<?xml version="1.0" encoding="utf-8"?>
<!-- Generator: Adobe Illustrator 26.0.3, SVG Export Plug-In . SVG Version: 6.00 Build 0)  -->
<svg version="1.1" id="clound" xmlns="http://www.w3.org/2000/svg" xmlns:xlink="http://www.w3.org/1999/xlink" x="0px" y="0px"
	 viewBox="0 0 255.1 255.1" style="enable-background:new 0 0 255.1 255.1;" xml:space="preserve">
<style type="text/css">
	#clound:hover .st0 {fill: silver;}
	.st0{fill:#FFFFFF;}
	.st1{fill:#A67C52;}
</style>
<script>
	//define the variables first (the elements you want the user to interact with)
	let theclound = document.querySelector("#clound");

	function logMyId() { console.log('clicked on an element: ', this.id);}

	//define the user events that drive interactivity (click, hover, whatever)
	theclound.addEventListener("click", logMyId);
</script>
<path id="cloud-fill" class="st0" d="M125.3,56.9c-19.5,0-38,8.5-50.7,23.2c-1.9-0.3-3.8-0.5-5.7-0.7c-1.2-0.1-2.4-0.1-3.6-0.1
	c-30.5,0-55.1,24.7-55.1,55.2c0,29.1,22.6,53.2,51.7,55c1.2,0.1,2.4,0.1,3.6,0.1c9.4,0,18.6-2.4,26.7-7c8.8,5,18.7,8,28.9,8.6
	c1.5,0.1,2.9,0.1,4.4,0.1c15.5,0,30.4-5.3,42.4-15.1c5.6,3.3,12,5.3,18.5,5.7c0.9,0.1,1.8,0.1,2.7,0.1c10.4,0,20.5-3.9,28.2-11
	c2.1,0.7,4.4,1.2,6.6,1.3c0.6,0,1.1,0.1,1.7,0.1c14.2,0,25.7-11.5,25.7-25.7c0-13.6-10.6-24.8-24.1-25.7c-0.4,0-0.8,0-1.2,0
	c-6.8-12.9-19.7-21.3-34.3-22.2c-0.9-0.1-1.8-0.1-2.6-0.1h-1.4c-9.7-23.8-32.3-40-58-41.6C128.2,57,126.8,57,125.3,56.9L125.3,56.9z
	"/>
<path id="cloud-line" class="st1" d="M125.3,58.8c1.4,0,2.8,0,4.2,0.1c25,1.6,46.8,17.3,56.3,40.5c0.3,0.7,1,1.2,1.8,1.2h0.1
	c0.5,0,0.9,0,1.4,0c0.9,0,1.7,0,2.5,0.1c13.9,0.8,26.3,8.9,32.8,21.2c0.3,0.6,1,1,1.6,1h1.1c13.1,0.8,23.2,12,22.4,25.1
	c-0.7,12.6-11.2,22.5-23.9,22.4c-0.5,0-1,0-1.5,0c-2.1-0.1-4.2-0.5-6.2-1.2c-0.2-0.1-0.4-0.1-0.6-0.1c-0.5,0-0.9,0.2-1.3,0.5
	c-7.3,6.8-16.9,10.5-26.9,10.5c-0.9,0-1.7,0-2.6-0.1c-6.2-0.4-12.3-2.2-17.7-5.4c-0.3-0.2-0.6-0.3-1-0.3c-0.4,0-0.9,0.2-1.2,0.4
	c-11.6,9.5-26.2,14.7-41.2,14.7c-1.4,0-2.8,0-4.2-0.1c-9.9-0.6-19.5-3.5-28.1-8.4c-0.6-0.3-1.3-0.3-1.9,0
	c-7.9,4.4-16.8,6.7-25.8,6.7c-1.1,0-2.3,0-3.4-0.1c-29.4-1.7-51.8-26.9-50.1-56.2c1.6-28.3,25.1-50.3,53.4-50.2c1.1,0,2.3,0,3.4,0.1
	c1.8,0.1,3.7,0.3,5.4,0.6c0.1,0,0.2,0,0.3,0c0.5,0,1.1-0.2,1.4-0.6C88.5,67,106.4,58.8,125.3,58.8 M125.3,56.9
	c-19.5,0-38,8.5-50.7,23.2c-1.9-0.3-3.8-0.5-5.7-0.7c-1.2-0.1-2.4-0.1-3.6-0.1c-30.5,0-55.1,24.7-55.1,55.2
	c0,29.1,22.6,53.2,51.7,55c1.2,0.1,2.4,0.1,3.6,0.1c9.4,0,18.6-2.4,26.7-7c8.8,5,18.7,8,28.9,8.6c1.5,0.1,2.9,0.1,4.4,0.1
	c15.5,0,30.4-5.3,42.4-15.1c5.6,3.3,12,5.3,18.5,5.7c0.9,0.1,1.8,0.1,2.7,0.1c10.4,0,20.5-3.9,28.2-11c2.1,0.7,4.4,1.2,6.6,1.3
	c0.6,0,1.1,0.1,1.7,0.1c14.2,0,25.7-11.5,25.7-25.7c0-13.6-10.6-24.8-24.1-25.7c-0.4,0-0.8,0-1.2,0c-6.8-12.9-19.7-21.3-34.3-22.2
	c-0.9-0.1-1.8-0.1-2.6-0.1h-1.4c-9.7-23.8-32.3-40-58-41.6C128.2,57,126.8,57,125.3,56.9L125.3,56.9z M145.5,99.6
	c0-7.5-2.3-14.8-6.5-20.9l-0.1-0.1l-1.2-1.3c-5.4-5.8-13-9.1-21-9.1c-15.5,0-28.1,12.6-28.1,28.1s12.6,28,28.1,28h0.6
	c9.8,0,17.2-7.7,17.2-18c0-9.9-8.1-18-18-18h-0.3c-5.4,0-10.2,4.4-10.2,9.3c0,5.2,4.2,9.3,9.3,9.3c5.2,0,9.3-4.2,9.3-9.3
	c0,0,0,0,0,0c0-0.5-0.4-0.9-1-0.9c-0.5,0-0.9,0.4-0.9,0.9c0,4.1-3.3,7.4-7.4,7.4c-4.1,0-7.4-3.3-7.4-7.4c0,0,0,0,0,0
	c0-4.3,4.4-7.4,8.3-7.4h0.3c8.9,0,16.1,7.2,16.1,16.1c0,9.2-6.6,16.1-15.3,16.1h-0.6c-14.4,0.3-26.4-11.2-26.7-25.6
	s11.2-26.4,25.6-26.7c0.3,0,0.7,0,1,0c7.4,0,14.5,3.1,19.6,8.5l1.1,1.3c4,5.8,6.1,12.7,6.1,19.8c0,19.6-16.2,35.5-36.1,35.5
	s-36.1-16-36.1-35.5c0-7,2.1-13.9,6.1-19.7c0.3-0.4,0.2-1-0.2-1.3c0,0,0,0,0,0c-0.4-0.3-1-0.2-1.3,0.2c0,0,0,0,0,0
	c-4.2,6.1-6.4,13.4-6.4,20.8c0,20.6,17,37.4,38,37.4S145.6,120.2,145.5,99.6L145.5,99.6z M239,142.9c-0.1-8.3-6.9-15.1-15.3-15h-0.3
	c-5.3,0-9.4,4.2-9.4,9.8c0,5.4,4.4,9.8,9.8,9.8l0,0h0.1c3.1,0,5.8-2.5,5.8-5.3c0-2.9-2.4-5.3-5.3-5.3c-2.9,0-5.3,2.4-5.3,5.3
	c0.2,0.5,0.7,0.8,1.3,0.6c0.3-0.1,0.5-0.3,0.6-0.6c0.1-1.9,1.7-3.3,3.6-3.2c1.7,0.1,3.1,1.5,3.2,3.2c0,2-2,3.4-3.9,3.4h-0.1
	c-4.4,0-7.9-3.6-7.9-7.9c0-4.5,3.2-7.9,7.5-7.9h0.3c7.3-0.2,13.3,5.5,13.5,12.8c0.2,7.3-5.5,13.3-12.8,13.5c-0.2,0-0.5,0-0.7,0
	c-3.7,0-7.3-1.5-9.8-4.2l-0.6-0.6c-2-2.9-3.1-6.4-3.1-10c0.1-10,8.3-18.1,18.3-18c0.5,0.1,1-0.3,1-0.8c0.1-0.5-0.3-1-0.8-1
	c-0.1,0-0.1,0-0.2,0c-11.1-0.1-20.1,8.8-20.2,19.9c0,4,1.2,7.9,3.5,11.1l0.1,0.1l0.6,0.7c2.9,3.1,7,4.9,11.2,4.9
	C232.1,158.1,238.9,151.4,239,142.9C239,143,239,143,239,142.9L239,142.9z M93.1,182c4-4,6.3-7.9,7-12l0.4-3.5
	c0.3-10.1-7.7-18.5-17.7-18.7c-0.1,0-0.3,0-0.4,0l0,0c-4.7,0-9.3,1.8-12.6,5.2c-6.9,7.1-6.7,18.4,0.3,25.4l0.2,0.2
	c2.1,2.1,5,3.3,8,3.2c3-0.2,5.8-1.4,7.9-3.6c4.5-4.5,4.5-11.9-0.1-16.4l-0.1-0.1c-2.5-2.5-6.8-2.7-9.1-0.3c-2.5,2.3-2.6,6.2-0.3,8.7
	s6.2,2.6,8.7,0.3c0.1-0.1,0.2-0.2,0.3-0.3c0.3-0.4,0.3-1,0-1.3c-0.4-0.4-1-0.4-1.3,0c0,0,0,0,0,0c-1.7,1.6-4.4,1.5-6-0.3
	c-1.5-1.6-1.5-4.1,0-5.7c1.7-1.7,4.8-1.2,6.4,0.4l0.1,0.1c3.8,3.8,3.8,9.9,0.1,13.7c-1.8,1.8-4.1,2.9-6.7,3
	c-2.5,0.1-4.8-0.8-6.6-2.5l-0.2-0.2c-6.4-6.2-6.5-16.3-0.3-22.7c0,0,0,0,0,0c3-3,7-4.6,11.2-4.6c9,0.1,16.3,7.4,16.2,16.4
	c0,0.1,0,0.2,0,0.3l-0.4,3.4c-0.7,3.6-2.8,7.2-6.5,10.9c-0.3,0.4-0.3,1,0,1.3c0.2,0.2,0.4,0.3,0.7,0.3
	C92.7,182.3,92.9,182.2,93.1,182z"/>
</svg>
