<?xml version="1.0" encoding="utf-8"?>
<!-- Generator: Adobe Illustrator 26.0.3, SVG Export Plug-In . SVG Version: 6.00 Build 0)  -->
<svg version="1.1" id="comet" xmlns="http://www.w3.org/2000/svg" xmlns:xlink="http://www.w3.org/1999/xlink" x="0px" y="0px"
	 viewBox="0 0 255.1 255.1" style="enable-background:new 0 0 255.1 255.1;" xml:space="preserve">
<style type="text/css">
	#comet:hover .st0 {fill: silver;}
	.st0{fill:#FFFFFF;}
	.st1{fill:#A67C52;}
</style>
<defs>
	<script>
		//define the variables first (the elements you want the user to interact with)
		let theIcon = document.querySelector("#comet");

		function logMyId() { console.log('clicked on an element: ', this.id);}

		//define the user events that drive interactivity (click, hover, whatever)
		theIcon.addEventListener("click", logMyId);
	</script>
</defs>
<g id="comet-2">
	<path id="background-comet" class="st0" d="M76.5,199.8c-0.1,0.1-0.2,0.1-0.3,0.1l-38.7,1.5c-0.2,0-0.5-0.1-0.6-0.3l-27.7-32
		c-0.2-0.2-0.2-0.4-0.2-0.6l5-38.7c0-0.3,0.2-0.5,0.4-0.6l37.3-20.6c0.2-0.1,0.5-0.1,0.7,0l36.2,16.2c0.2,0.1,0.4,0.3,0.4,0.5
		l12.7,41.2c0.1,0.3,0,0.5-0.1,0.7l-24.7,32.3C76.7,199.6,76.6,199.7,76.5,199.8z"/>
	<path id="lines-comet" class="st1" d="M52,109.3l36.2,16.2l12.7,41.2L76.1,199l-38.7,1.5l-27.7-32l5-38.7L52,109.3 M51.3,107.9
		L51.3,107.9l-37.3,20.6c-0.5,0.3-0.8,0.7-0.8,1.2l-5,38.7c-0.1,0.5,0.1,0.9,0.4,1.3l27.7,32c0.3,0.4,0.8,0.6,1.3,0.6l38.7-1.5
		c0.2,0,0.5-0.1,0.7-0.2c0.2-0.1,0.4-0.3,0.6-0.5l24.7-32.3c0.3-0.4,0.4-1,0.3-1.5L89.7,125c-0.1-0.4-0.5-0.8-0.9-1l-36.2-16.2
		C52.2,107.6,51.7,107.6,51.3,107.9L51.3,107.9z M91.2,179.9c-0.2-0.4-0.7-0.6-1.1-0.4l-39.2,19.9c-0.4,0.2-0.6,0.7-0.4,1.1
		c0.2,0.4,0.7,0.6,1.1,0.4l0,0L90.8,181C91.2,180.8,91.4,180.3,91.2,179.9C91.2,179.9,91.2,179.9,91.2,179.9L91.2,179.9z M89,125.6
		c0.1-0.4-0.3-0.8-0.7-0.9c0,0,0,0,0,0l-55.8-6.2c-0.5,0-0.8,0.4-0.8,0.8c0,0.4,0.3,0.7,0.6,0.8l55.8,6.2
		C88.5,126.3,88.9,126,89,125.6C89,125.6,89,125.6,89,125.6z M78.8,186.9c0.2-0.4,0.1-0.9-0.3-1.1c0,0,0,0,0,0l-65.8-35.7
		c-0.4-0.2-0.9-0.1-1.1,0.3c-0.2,0.4-0.1,0.9,0.3,1.1c0,0,0,0,0,0l65.8,35.7c0.2,0.1,0.5,0.1,0.8,0
		C78.5,187.2,78.7,187.1,78.8,186.9z M89,125.3c-0.1-0.4-0.6-0.7-1-0.6l-75.4,20.1c-0.4,0.1-0.7,0.6-0.6,1c0.1,0.4,0.6,0.7,1,0.6
		l75.3-20.1c0.1,0,0.1,0,0.2-0.1C88.9,126.1,89.1,125.7,89,125.3z M65.3,140.1l0.7,1.4c3.5-1.8,7-1.8,8.5,0c2,2.4,0,7.3-4.2,10.7
		c-0.9,0.7-1.9,1.4-2.9,1.9c-3.5,1.8-7,1.8-8.5,0c-2-2.4,0-7.3,4.2-10.7c0.9-0.7,1.8-1.3,2.8-1.9L65.3,140.1 M65.3,140.1
		c-1.1,0.6-2.2,1.3-3.2,2.1c-5,4.1-7,9.9-4.4,13c2,2.5,6.3,2.6,10.5,0.4c1.1-0.6,2.2-1.3,3.2-2.1c5-4,7-9.9,4.4-13
		C73.8,138,69.4,138,65.3,140.1z M54.5,182.2c1.4-0.7,3-0.1,3.7,1.2c0.7,1.4,0.1,3-1.2,3.7c-1.4,0.7-3,0.1-3.7-1.2
		C52.5,184.6,53.1,183,54.5,182.2 M53.7,180.8c-2.2,1.1-3,3.7-1.9,5.9s3.7,3,5.9,1.9c2.2-1.1,3-3.7,1.9-5.9c0,0,0,0,0,0
		C58.5,180.6,55.9,179.7,53.7,180.8z M42.7,188.2c0.6-0.3,1.4-0.1,1.8,0.6s0.1,1.4-0.6,1.8c-0.6,0.3-1.4,0.1-1.8-0.6c0,0,0,0,0,0
		C41.8,189.4,42.1,188.6,42.7,188.2 M42,186.8c-1.4,0.7-2,2.5-1.3,3.9c0.7,1.4,2.5,2,3.9,1.3c1.4-0.7,2-2.5,1.3-3.9
		C45.2,186.6,43.4,186,42,186.8z M124.4,153.7c2.8-22.3-8.7-44-28.7-54.3c-0.4-0.2-0.9-0.1-1.1,0.3s-0.1,0.9,0.3,1.1l0,0
		c19.4,10,30.4,31.1,27.8,52.7c-0.1,0.4,0.3,0.8,0.7,0.9c0,0,0,0,0,0C123.9,154.4,124.3,154.1,124.4,153.7
		C124.3,153.7,124.3,153.7,124.4,153.7L124.4,153.7z M107.8,84.2c-0.2-0.4-0.7-0.6-1.1-0.4c0,0,0,0,0,0l-18.3,9.3
		c-0.4,0.2-0.6,0.7-0.3,1.1c0.2,0.4,0.7,0.6,1.1,0.4c0,0,0,0,0,0l18.3-9.3C107.8,85.1,108,84.6,107.8,84.2
		C107.8,84.2,107.8,84.2,107.8,84.2z M202.1,62.7c-0.2-0.4-0.7-0.6-1.1-0.4c0,0,0,0,0,0l-83.7,42.5c-0.4,0.2-0.6,0.7-0.4,1.1
		c0.2,0.4,0.7,0.6,1.1,0.4c0,0,0,0,0,0l83.7-42.5C202.1,63.6,202.3,63.1,202.1,62.7C202.1,62.7,202.1,62.7,202.1,62.7z M145.6,158.8
		c-0.2-0.4-0.7-0.6-1.1-0.4c0,0,0,0,0,0l-18.3,9.3c-0.4,0.2-0.6,0.7-0.4,1.1c0,0,0,0,0,0c0.2,0.4,0.7,0.6,1.1,0.4c0,0,0,0,0,0
		l18.3-9.3C145.6,159.7,145.8,159.2,145.6,158.8C145.6,158.8,145.6,158.8,145.6,158.8L145.6,158.8z M203,101.7
		c-0.2-0.4-0.7-0.6-1.1-0.4c0,0,0,0,0,0l-40.4,20.5c-0.4,0.2-0.6,0.7-0.4,1.1c0.2,0.4,0.7,0.6,1.1,0.4c0,0,0,0,0,0l40.4-20.5
		C203,102.6,203.2,102.2,203,101.7C203,101.7,203,101.7,203,101.7z M236.3,101.3c-0.2-0.4-0.7-0.6-1.1-0.4l-95.3,48.3
		c-0.4,0.2-0.6,0.7-0.4,1.1c0,0,0,0,0,0c0.2,0.4,0.7,0.6,1.1,0.4l95.3-48.3C236.3,102.2,236.4,101.7,236.3,101.3L236.3,101.3z
		 M169,64.4c-0.2-0.4-0.7-0.6-1.1-0.4c0,0,0,0,0,0L147,74.7c-0.4,0.2-0.6,0.7-0.4,1.1s0.7,0.6,1.1,0.4l0,0l20.9-10.6
		C169.1,65.3,169.2,64.8,169,64.4z M236.3,63.4c-0.2-0.4-0.7-0.6-1.1-0.4c0,0,0,0,0,0l-61.4,31.1c-0.4,0.2-0.5,0.7-0.3,1.1
		c0.2,0.4,0.7,0.5,1.1,0.3L236,64.5C236.4,64.3,236.5,63.8,236.3,63.4C236.3,63.4,236.3,63.4,236.3,63.4L236.3,63.4z M241.6,60.2
		l1.3-2c3.2-5.9,0.9-13.3-5-16.5c-0.1,0-0.1-0.1-0.2-0.1c-5.8-2.9-12.8-0.6-15.8,5.1c0,0.1-0.1,0.2-0.1,0.2
		c-1.4,2.9-1.6,6.2-0.6,9.2l0.1,0.2c0.6,1.9,2,3.5,3.9,4.3c1.8,0.8,3.9,0.9,5.8,0.2c4.1-1.4,6.2-5.8,4.9-9.8V51
		c-0.7-2.3-3.1-3.6-5.5-3c-2.2,0.9-3.2,3.3-2.4,5.5c0.8,2,3,3.1,5.1,2.5c0.4-0.1,0.6-0.6,0.5-1c-0.1-0.4-0.6-0.6-1-0.5
		c-1.4,0.5-2.8-0.3-3.3-1.6c-0.2-0.7-0.2-1.4,0.1-2c0.3-0.6,0.8-1.1,1.5-1.3c0.7-0.2,1.4-0.1,2,0.3c0.7,0.4,1.2,1,1.4,1.7v0.1
		c1.1,3.2-0.6,6.7-3.8,7.8c0,0,0,0,0,0c-1.5,0.5-3.2,0.5-4.6-0.2c-1.4-0.6-2.5-1.9-3-3.3l-0.1-0.2c-0.9-2.6-0.7-5.5,0.5-7.9
		c2.4-5,8.4-7.2,13.5-4.8c0.1,0,0.1,0.1,0.2,0.1c5.2,2.6,7.3,9,4.6,14.2c0,0,0,0.1-0.1,0.1l-1.2,1.9c-1.4,1.9-3.7,3.4-6.9,4.5
		c-0.4,0.1-0.6,0.6-0.5,1c0.1,0.4,0.6,0.6,1,0.5c1-0.3,2-0.8,3-1.2C238.8,63.1,240.4,61.8,241.6,60.2L241.6,60.2z M242.3,97.4
		l1.7-2.6c2-3.8,2.4-8.3,1-12.4c-2.7-8.1-11.4-12.5-19.5-9.8c-3.9,1.3-7,4.1-8.8,7.8c-1.8,3.7-2,8-0.7,11.8l0.1,0.3
		c1.7,5.1,7.1,7.6,12.4,5.8c5.2-1.8,8-7.4,6.2-12.6v-0.2c-1-2.9-4.2-4.7-6.9-3.8c-2.7,1.2-3.9,4.3-2.7,7c1,2.4,3.6,3.6,6.1,3
		c0.4-0.1,0.7-0.6,0.5-1c-0.1-0.4-0.6-0.7-1-0.5c-1.9,0.6-4-0.4-4.7-2.3c-0.6-1.9,0.4-4,2.3-4.7c2-0.7,4.2,0.9,4.8,2.7l0.1,0.2
		c1.5,4.3-0.9,9.1-5.2,10.5c0,0,0,0,0,0c-4.5,1.5-9-0.5-10.4-4.8l-0.1-0.3c-1.2-3.5-1-7.3,0.6-10.6c1.6-3.3,4.4-5.8,7.9-7
		c7.2-2.4,15,1.6,17.4,8.8c1.2,3.7,0.9,7.7-0.9,11.1l-1.6,2.6c-1.9,2.5-4.9,4.5-9.2,5.9c-0.4,0.1-0.7,0.6-0.5,1
		c0.1,0.4,0.6,0.7,1,0.5l0,0c1.3-0.4,2.6-1,3.9-1.6C238.6,101.1,240.7,99.4,242.3,97.4L242.3,97.4z M103,189.7
		c18.6-27.5,11.3-64.9-16.2-83.5c-7.2-4.9-15.4-8.1-24-9.5c-0.4-0.1-0.9,0.2-0.9,0.7c0,0,0,0,0,0c-0.1,0.4,0.2,0.9,0.7,0.9
		c31.9,5.2,53.6,35.2,48.4,67.1c-1.4,8.3-4.5,16.3-9.2,23.3c-0.2,0.4-0.1,0.9,0.2,1.1c0.2,0.1,0.5,0.2,0.8,0.1
		C102.8,189.9,102.9,189.8,103,189.7z M225.6,121.6c-0.2-0.4-0.7-0.6-1.1-0.4l-45.4,23c-0.4,0.2-0.6,0.7-0.4,1.1s0.7,0.6,1.1,0.4
		l0,0l45.4-23C225.7,122.5,225.9,122,225.6,121.6C225.7,121.6,225.7,121.6,225.6,121.6L225.6,121.6z M235.5,136.2
		c2-1.4,3.3-3.5,3.7-5.8c0.4-2.4-0.2-4.8-1.6-6.8c-1.5-2.1-3.8-3.5-6.3-3.8l-1.7-0.1c-2.4,0.1-4.6,1-6.5,2.4
		c-0.4,0.3-0.5,0.8-0.2,1.1c0.3,0.4,0.8,0.5,1.1,0.2c1.6-1.2,3.5-2,5.5-2.1l1.6,0.1c4.1,0.6,7,4.4,6.4,8.6c0,0,0,0.1,0,0.1
		c-0.6,4-4.4,6.7-8.3,6c-0.1,0-0.1,0-0.2,0c-1.9-0.4-3.7-1.5-4.8-3.1l-0.1-0.1c-1.3-1.9-0.8-4.4,1-5.7c0.1,0,0.1-0.1,0.2-0.1
		c1.9-1.4,4.6-0.9,6,1l0.1,0.1c0.6,0.8,0.5,1.9-0.3,2.6c-0.8,0.6-1.9,0.4-2.4-0.4s-0.4-1.9,0.4-2.4c0.4-0.3,0.5-0.8,0.2-1.1
		c0,0,0,0,0,0c-0.3-0.4-0.8-0.5-1.1-0.2c-1.5,1.1-1.9,3.1-0.8,4.7c1.1,1.5,3.1,1.9,4.6,0.8c1.5-1.2,1.8-3.3,0.7-4.9l-0.1-0.1
		c-1.9-2.7-5.6-3.3-8.3-1.4c-2.7,1.7-3.4,5.3-1.7,8c0,0,0,0.1,0.1,0.1l0.1,0.1c1.4,2,3.5,3.3,5.9,3.8c1.9,0.4,3.9,0.1,5.6-0.8
		C234.8,136.7,235.2,136.5,235.5,136.2L235.5,136.2z M165.2,54.5l-45.4,23c-0.4,0.2-0.6,0.7-0.4,1.1c0.2,0.4,0.7,0.6,1.1,0.4
		l45.4-23c0.4-0.2,0.6-0.7,0.4-1.1C166.1,54.4,165.6,54.3,165.2,54.5C165.2,54.5,165.2,54.5,165.2,54.5z M159.1,38.7
		c-1.7,0.9-3.1,2.3-4,4.1c-1.1,2.2-1.2,4.7-0.4,6.9l0.1,0.2c1.1,3,4.4,4.6,7.4,3.5c0,0,0.1,0,0.1,0c3.1-1.1,4.8-4.4,3.8-7.5v-0.1
		c-0.6-1.8-2.5-2.8-4.3-2.3c-1.7,0.6-2.7,2.5-2.1,4.2c0.6,1.7,2.5,2.7,4.2,2.1l0,0c0.4-0.2,0.6-0.6,0.5-1c-0.1-0.4-0.6-0.6-1-0.5
		c-0.4,0.1-0.9,0.1-1.3-0.1c-0.8-0.4-1.2-1.4-0.8-2.3c0.2-0.4,0.6-0.7,1-0.9c1-0.2,1.9,0.4,2.2,1.3v0.1c0.8,2.3-0.4,4.7-2.7,5.5
		c-2.1,0.8-4.5-0.2-5.3-2.3c0-0.1,0-0.1-0.1-0.2l-0.1-0.2c-0.6-1.9-0.5-3.9,0.4-5.7c1.7-3.6,6.1-5.1,9.7-3.4c0,0,0.1,0,0.1,0.1
		c1.8,0.9,3.1,2.4,3.7,4.3c0.7,2,0.5,4.2-0.5,6l-0.9,1.4c-1.3,1.5-3.1,2.6-5,3.2c-0.4,0.1-0.6,0.6-0.5,1c0.1,0.4,0.6,0.6,1,0.5
		c2.3-0.6,4.3-2,5.8-3.8l0.9-1.5c1.2-2.3,1.5-4.9,0.6-7.3c-0.8-2.3-2.4-4.2-4.6-5.2c-2.1-1.1-4.6-1.3-6.9-0.5
		C159.9,38.3,159.5,38.5,159.1,38.7L159.1,38.7z"/>
</g>
</svg>
