<?xml version="1.0" encoding="utf-8"?>
<!-- Generator: Adobe Illustrator 26.0.3, SVG Export Plug-In . SVG Version: 6.00 Build 0)  -->
<svg version="1.1" id="Constellation"
	 xmlns="http://www.w3.org/2000/svg" xmlns:xlink="http://www.w3.org/1999/xlink" x="0px" y="0px" viewBox="0 0 255.1 255.1"
	 style="enable-background:new 0 0 255.1 255.1;" xml:space="preserve">
<style type="text/css">
	#Constellation:hover .st1 {fill: silver;}
	.st0{fill:#A67C52;}
	.st1{fill:#A67C52;}
</style>
<script>
	//define the variables first (the elements you want the user to interact with)
	let theIcon = document.querySelector("#Constellation");

	function logMyId() { console.log('clicked on an element: ', this.id);}

	//define the user events that drive interactivity (click, hover, whatever)
	theIcon.addEventListener("click", logMyId);
</script>
<g id="Path">
	<path class="st0" d="M77.2,139.6c0,0.1,0,0.2,0,0.3c-0.2,0.8-0.9,1.4-1.8,1.4c-0.1,0-0.2,0-0.3,0c-1-0.2-1.6-1.1-1.4-2.1
		c0.2-0.8,0.9-1.5,1.8-1.5c0.1,0,0.2,0,0.3,0C76.6,138,77.2,138.7,77.2,139.6z M69.8,136.7c-0.1,0-0.2,0-0.3,0
		c-1-0.1-1.8,0.7-1.9,1.7c-0.1,1,0.7,1.8,1.7,1.9c0.1,0,0.2,0,0.3,0c0.9,0,1.6-0.6,1.8-1.4c0-0.1,0-0.2,0-0.3
		C71.3,137.6,70.7,136.8,69.8,136.7L69.8,136.7z M57.9,134.4c-0.1,0-0.2,0-0.3,0c-1,0-1.8,0.8-1.8,1.8c0,0.9,0.6,1.6,1.5,1.8
		c0.1,0,0.2,0,0.3,0c0.9,0,1.6-0.6,1.8-1.4c0-0.1,0-0.2,0-0.3C59.3,135.3,58.7,134.6,57.9,134.4L57.9,134.4z M63.9,135.5
		c-0.1,0-0.2,0-0.3,0c-1,0-1.8,0.8-1.7,1.8c0,0.8,0.6,1.5,1.4,1.7c0.1,0,0.2,0,0.3,0c0.9,0,1.6-0.6,1.8-1.4c0-0.1,0-0.2,0-0.3
		C65.3,136.4,64.7,135.7,63.9,135.5z M81.7,139c-0.1,0-0.2,0-0.3,0c-1,0-1.8,0.8-1.8,1.8c0,0.9,0.6,1.6,1.5,1.8h0.3
		c0.9,0,1.6-0.6,1.8-1.4c0-0.1,0-0.2,0-0.3C83.2,139.9,82.6,139.2,81.7,139z M93,144.8c0.1,0,0.2,0,0.3,0c0.9,0,1.6-0.6,1.8-1.4
		c0-0.1,0-0.2,0-0.3c0-0.9-0.6-1.6-1.4-1.8c-0.1,0-0.2,0-0.3,0c-1,0-1.8,0.8-1.8,1.8C91.5,143.9,92.1,144.6,93,144.8L93,144.8z
		 M99,145.9c0.1,0,0.2,0,0.3,0c0.9,0,1.6-0.6,1.8-1.4c0-0.1,0-0.2,0-0.3c0-0.9-0.6-1.6-1.4-1.8c-0.1,0-0.2,0-0.3,0
		c-0.9,0-1.6,0.6-1.8,1.4C97.3,144.8,98,145.7,99,145.9L99,145.9z M87.8,140.1c-0.1,0-0.2,0-0.3,0c-1,0-1.8,0.8-1.8,1.8
		c0,0.9,0.6,1.6,1.5,1.8c0.1,0,0.2,0,0.3,0c0.9,0,1.6-0.6,1.8-1.4c0-0.1,0-0.2,0-0.3C89.2,141,88.5,140.3,87.8,140.1L87.8,140.1z
		 M110.9,148.2c0.1,0,0.2,0,0.3,0c0.9,0,1.6-0.6,1.8-1.4c0-0.1,0-0.2,0-0.3c0-0.9-0.6-1.6-1.4-1.8c-0.1,0-0.2,0-0.3,0
		c-0.9,0-1.6,0.6-1.8,1.5C109.3,147.1,109.9,148,110.9,148.2L110.9,148.2z M116.9,149.4c0.1,0,0.2,0,0.3,0c0.9,0,1.6-0.6,1.8-1.4
		c0-0.1,0-0.2,0-0.3c0-0.9-0.6-1.6-1.4-1.8c-0.1,0-0.2,0-0.3,0c-1,0-1.8,0.8-1.8,1.8C115.5,148.5,116.1,149.2,116.9,149.4
		L116.9,149.4z M122.9,150.5c0.1,0,0.2,0,0.3,0c0.5,0,0.9-0.2,1.2-0.5c0.1-0.3,0.3-0.6,0.5-0.8v-0.1c0-0.1,0-0.2,0-0.3
		c0-0.9-0.6-1.6-1.5-1.8c-0.1,0-0.2,0-0.3,0c-1,0-1.8,0.8-1.7,1.8C121.4,149.7,122,150.4,122.9,150.5L122.9,150.5z M105,147.1
		c0.1,0,0.2,0,0.3,0c0.9,0,1.6-0.6,1.8-1.4c0-0.1,0-0.2,0-0.3c0-0.9-0.6-1.6-1.4-1.8c-0.1,0-0.2,0-0.3,0c-1,0-1.8,0.8-1.8,1.8
		C103.5,146.2,104.2,146.9,105,147.1L105,147.1z M52,133.2c-0.1,0-0.2,0-0.3,0c-1,0-1.8,0.8-1.8,1.8c0,0.8,0.6,1.5,1.4,1.7h0.3
		c0.9,0,1.6-0.6,1.8-1.4C53.6,134.4,53,133.4,52,133.2z M46,132.1c-0.1,0-0.2,0-0.3,0c-1,0-1.8,0.8-1.7,1.8c0,0.8,0.6,1.5,1.4,1.7
		c0.1,0,0.2,0,0.3,0c0.9,0,1.6-0.6,1.8-1.4c0-0.1,0-0.2,0-0.3C47.4,133,46.8,132.3,46,132.1L46,132.1z M122.3,175.6
		c-0.2-0.1-0.5-0.2-0.8-0.2c-1,0-1.8,0.8-1.9,1.8c0,1,0.8,1.8,1.8,1.9c1,0,1.8-0.8,1.9-1.8C123.3,176.6,122.9,176,122.3,175.6z
		 M116,189.6c0.2,0,0.3,0.1,0.5,0.1c0.8,0,1.5-0.5,1.7-1.3c0-0.2,0.1-0.3,0.1-0.5c0-0.8-0.5-1.5-1.3-1.7c-0.2,0-0.3-0.1-0.5-0.1
		c-1,0-1.8,0.8-1.8,1.8C114.7,188.7,115.3,189.4,116,189.6L116,189.6z M125,170.4c-0.3-0.1-0.5-0.2-0.8-0.2c-1,0-1.8,0.8-1.8,1.8
		c0,0.7,0.4,1.3,0.9,1.6c0.9,0.4,2,0.1,2.4-0.8c0.1-0.2,0.2-0.5,0.2-0.8C126,171.3,125.6,170.7,125,170.4L125,170.4z M108.2,218
		c0.2,0,0.3,0.1,0.5,0.1c0.8,0,1.5-0.5,1.7-1.3c0.1-0.2,0.1-0.3,0.1-0.5c0-0.8-0.5-1.5-1.3-1.7c-0.2,0-0.3-0.1-0.5-0.1
		c-1,0-1.8,0.8-1.8,1.8C106.8,217.1,107.4,217.8,108.2,218L108.2,218z M109.8,212.3c0.2,0,0.3,0.1,0.5,0.1c0.8,0,1.6-0.6,1.8-1.4
		c0-0.2,0.1-0.3,0.1-0.5c0-0.8-0.5-1.5-1.3-1.7c-0.2,0-0.3-0.1-0.5-0.1c-1,0-1.8,0.8-1.8,1.8C108.5,211.3,109,212,109.8,212.3
		L109.8,212.3z M112.3,203.2c-0.2,0-0.3-0.1-0.5-0.1c-1,0-1.8,0.8-1.8,1.7c0,0.8,0.5,1.5,1.3,1.8c0.2,0,0.3,0.1,0.5,0.1
		c0.8,0,1.5-0.5,1.7-1.3c0-0.2,0.1-0.3,0.1-0.5C113.6,204.1,113.1,203.4,112.3,203.2L112.3,203.2z M127.7,165.2
		c-0.3-0.1-0.5-0.2-0.8-0.2c-0.7,0-1.3,0.4-1.6,1c-0.5,0.9-0.1,2,0.8,2.4c0.3,0.1,0.5,0.2,0.8,0.2c1,0,1.8-0.8,1.8-1.8
		C128.7,166.2,128.3,165.6,127.7,165.2L127.7,165.2z M115.1,199.7c0-0.2,0.1-0.3,0.1-0.5c0-0.8-0.5-1.5-1.3-1.7
		c-0.2,0-0.3-0.1-0.5-0.1c-1,0-1.8,0.8-1.8,1.7c0,0.8,0.5,1.5,1.3,1.8c0.2,0,0.3,0.1,0.5,0.1C114.2,201,114.9,200.5,115.1,199.7z
		 M147.5,137.1c-1,0-1.8,0.8-1.8,1.8s0.8,1.8,1.8,1.8s1.8-0.8,1.8-1.8c0-0.5-0.2-0.9-0.5-1.2C148.5,137.2,148,137,147.5,137.1z
		 M192.4,76.1c-0.3-0.2-0.6-0.2-0.9-0.2c-1,0-1.8,0.8-1.8,1.8c0,0.6,0.3,1.2,0.9,1.5c0.3,0.2,0.6,0.3,0.9,0.2c1,0,1.8-0.8,1.8-1.8v0
		C193.2,77,192.9,76.4,192.4,76.1L192.4,76.1z M189.4,81.1c-0.8-0.5-1.9-0.2-2.4,0.6c-0.5,0.8-0.2,1.9,0.6,2.4l0,0
		c0.3,0.2,0.6,0.3,0.9,0.2c0.6,0,1.2-0.3,1.5-0.9c0.2-0.3,0.3-0.6,0.2-0.9C190.2,82,189.9,81.4,189.4,81.1L189.4,81.1z M177.4,101.1
		c-0.3-0.2-0.6-0.3-0.9-0.2c-1,0-1.8,0.8-1.8,1.8c0,0.6,0.3,1.2,0.9,1.5c0.3,0.2,0.6,0.2,0.9,0.2c1,0,1.8-0.8,1.8-1.8
		C178.3,102,178,101.4,177.4,101.1z M195.4,71c-0.3-0.2-0.6-0.3-0.9-0.2c-1,0-1.8,0.8-1.8,1.8c0,0.6,0.3,1.2,0.9,1.5
		c0.3,0.2,0.6,0.3,0.9,0.3c0.6,0,1.2-0.3,1.6-0.9c0.2-0.3,0.3-0.6,0.2-0.9C196.2,71.9,195.9,71.4,195.4,71L195.4,71z M183.4,91.1
		c-0.3-0.2-0.6-0.3-0.9-0.2c-1,0-1.8,0.8-1.8,1.8c0,0.6,0.3,1.2,0.9,1.5c0.3,0.2,0.6,0.3,0.9,0.3c0.6,0,1.2-0.3,1.5-0.9
		c0.2-0.3,0.3-0.6,0.2-0.9C184.2,92,183.9,91.5,183.4,91.1L183.4,91.1z M180.4,96.1c-0.3-0.2-0.6-0.2-0.9-0.2
		c-0.6,0-1.2,0.3-1.5,0.9c-0.5,0.9-0.2,1.9,0.6,2.5c0.3,0.2,0.6,0.2,0.9,0.2c0.6,0,1.2-0.3,1.5-0.9c0.2-0.3,0.2-0.6,0.2-0.9
		C181.2,97,180.9,96.5,180.4,96.1L180.4,96.1z M198.3,66c-0.8-0.5-1.9-0.2-2.5,0.6c-0.5,0.8-0.2,1.9,0.6,2.5
		c0.3,0.2,0.6,0.3,0.9,0.3c0.6,0,1.3-0.3,1.6-0.8c0.2-0.3,0.2-0.6,0.2-0.9C199.2,67,198.9,66.4,198.3,66L198.3,66z M202.2,62.5
		c0-0.6-0.3-1.2-0.9-1.5c-0.3-0.2-0.6-0.2-0.9-0.2c-1,0-1.8,0.8-1.8,1.8c0,0.6,0.3,1.2,0.9,1.5c0.3,0.2,0.6,0.2,0.9,0.2
		c0.6,0,1.2-0.3,1.5-0.9C202.1,63.2,202.2,62.9,202.2,62.5L202.2,62.5z M186.4,86.1c-0.3-0.2-0.6-0.2-0.9-0.2c-1,0-1.8,0.8-1.8,1.8
		c0,0.6,0.3,1.2,0.9,1.5c0.3,0.2,0.6,0.3,0.9,0.2c1,0,1.8-0.8,1.8-1.8C187.3,87,186.9,86.4,186.4,86.1z M151.7,133
		c-0.5,0-0.9,0.2-1.2,0.5c-0.7,0.7-0.7,1.8,0,2.5c0.3,0.3,0.8,0.5,1.3,0.5c1,0,1.8-0.8,1.8-1.8c0,0,0,0,0,0c0-0.5-0.2-0.9-0.5-1.2
		C152.6,133.2,152.2,133,151.7,133z M160.1,124.9c-0.5,0-0.9,0.2-1.2,0.5c-0.7,0.7-0.7,1.8,0,2.5c0,0,0,0,0,0
		c0.3,0.4,0.8,0.6,1.3,0.5c0.5,0,0.9-0.2,1.2-0.5c0.3-0.3,0.5-0.8,0.5-1.3c0-0.5-0.2-0.9-0.5-1.2C161,125,160.6,124.8,160.1,124.9
		L160.1,124.9z M155.9,128.9c-1,0-1.8,0.8-1.8,1.8c0,1,0.8,1.8,1.8,1.8c1,0,1.8-0.8,1.8-1.8c0-0.5-0.2-0.9-0.5-1.2
		C156.8,129.1,156.4,128.9,155.9,128.9L155.9,128.9z M164.2,120.8c-0.5,0-0.9,0.2-1.2,0.5c-0.7,0.7-0.7,1.8,0,2.5c0,0,0,0,0,0
		c0.7,0.7,1.8,0.7,2.5,0c0.3-0.3,0.5-0.8,0.5-1.3c0-0.5-0.2-0.9-0.5-1.2C165.2,120.9,164.7,120.7,164.2,120.8L164.2,120.8z
		 M172.6,109.3c0.3,0.2,0.6,0.3,0.9,0.2c0.6,0,1.2-0.3,1.5-0.9c0.2-0.3,0.3-0.6,0.2-0.9c0-0.6-0.3-1.2-0.9-1.5
		c-0.3-0.2-0.6-0.3-0.9-0.2c-1,0-1.8,0.8-1.8,1.8C171.7,108.4,172.1,109,172.6,109.3z M119.4,181c-0.2,0-0.3-0.1-0.5-0.1
		c-1,0-1.8,0.8-1.8,1.8c0,0.8,0.5,1.5,1.3,1.7c0.2,0,0.3,0.1,0.5,0.1c0.8,0,1.5-0.5,1.7-1.3c0-0.2,0.1-0.3,0.1-0.5
		C120.7,181.9,120.2,181.2,119.4,181z M114.4,195.4c0.2,0,0.3,0.1,0.5,0.1c0.8,0,1.5-0.5,1.7-1.3c0-0.2,0.1-0.3,0.1-0.5
		c0-0.8-0.5-1.5-1.3-1.7c-0.2,0-0.3-0.1-0.5-0.1c-1,0-1.8,0.8-1.8,1.8C113.1,194.5,113.6,195.2,114.4,195.4L114.4,195.4z M130.4,159
		c-0.2,0-0.3-0.1-0.5-0.1c-1,0-1.8,0.8-1.8,1.8c0,0.8,0.5,1.5,1.3,1.7c0.2,0,0.3,0.1,0.5,0.1c0.8,0,1.5-0.5,1.7-1.3
		c0-0.2,0.1-0.3,0.1-0.5C131.7,159.9,131.2,159.2,130.4,159z M143.4,145.4c0.2,0,0.3,0.1,0.5,0.1c0.8,0,1.5-0.5,1.7-1.3
		c0-0.2,0.1-0.3,0.1-0.5c0-0.8-0.5-1.5-1.3-1.7c-0.2,0-0.3-0.1-0.5-0.1c-1,0-1.8,0.8-1.8,1.8C142.1,144.5,142.6,145.2,143.4,145.4
		L143.4,145.4z"/>
</g>
<g id="Stars">
	<path class="st1" d="M177.2,110.5l-5.8,5.1l5.8,5.1l-7.3-2.5l-1.5,7.6l-1.5-7.6l-7.3,2.5l5.8-5.1l-5.8-5.1l7.3,2.4l1.5-7.6l1.5,7.6
		L177.2,110.5z M235.4,54.2l-19.3-3l12.2,15.3L213,54.3l3,19.3l-7.1-18.2l-7.1,18.2l2.2-14.4c-0.2,0.1-0.4,0.1-0.6,0.1
		c-1,0-1.8-0.8-1.8-1.8c0-0.3,0.1-0.6,0.3-0.9l0.1-0.1l-12.4,9.9l12.3-15.3l-19.3,3l18.2-7.1l-18.2-7.1l19.3,3l-12.2-15.3L204.8,40
		l-3-19.3l7.1,18.2l7.1-18.2L213,40l15.2-12.2L216,43l19.3-3l-18.2,7.1L235.4,54.2z M204.5,56.2l0.3-1.9l-2.1,1.6
		c0.2-0.1,0.4-0.1,0.7-0.1c0.3,0,0.6,0.1,0.9,0.2C204.4,56.1,204.5,56.1,204.5,56.2z M136.1,141.2c-0.2-1.5-0.6-2.9-1.1-4.3
		c-0.5,1.4-0.9,2.8-1.1,4.3c-0.9,5.2-4.9,9.3-10.1,10.4l-2.2,0.5c0.9,0.3,1.9,0.6,2.8,0.9c4.9,1.3,8.6,5.3,9.5,10.3
		c0.2,1.4,0.6,2.7,1.1,4c0.5-1.3,0.8-2.6,1.1-4c0.9-5,4.6-9,9.5-10.3c0.9-0.2,1.9-0.5,2.8-0.9c0,0-0.9-0.2-2.2-0.5
		C141,150.5,137,146.3,136.1,141.2L136.1,141.2z M47.1,130.1c1-0.2,1.9-0.5,2.8-0.9c0,0-0.9-0.2-2.2-0.5c-5.2-1.1-9.1-5.2-10.1-10.4
		c-0.2-1.5-0.6-2.9-1.1-4.3c-0.5,1.4-0.9,2.8-1.1,4.3c-0.9,5.2-4.9,9.3-10.1,10.4l-2.1,0.5c0.9,0.4,1.8,0.7,2.8,0.9
		c4.9,1.3,8.6,5.3,9.5,10.3c0.2,1.4,0.6,2.7,1.1,4c0.5-1.3,0.8-2.6,1.1-4c0.4-2.2,1.4-4.3,2.8-6c0.5-0.2,0.9-0.6,1.1-1.1
		C43,131.7,44.9,130.6,47.1,130.1L47.1,130.1z M106.5,219.7l-2.5-12.7l-2.6,12.7l-12.3-4.1l9.7,8.6l-9.7,8.6l12.3-4.1l2.6,12.7
		l2.6-12.7l12.3,4.1l-9.7-8.6l9.7-8.6L106.5,219.7z"/>
</g>
</svg>
