<svg id="Camada_1" data-name="Camada 1" xmlns="http://www.w3.org/2000/svg" viewBox="0 0 106 110"><defs><style>.cls-1{fill:#fff;}</style></defs><path class="cls-1" d="M68.11,44.23A2.9,2.9,0,1,0,71,47.13,2.9,2.9,0,0,0,68.11,44.23Z"/><path class="cls-1" d="M55.2,48a12.2,12.2,0,1,0,12.2,12.2A12.21,12.21,0,0,0,55.2,48Zm0,20A7.81,7.81,0,1,1,63,60.15,7.81,7.81,0,0,1,55.2,68Z"/><path class="cls-1" d="M64.89,84.91H45.11A14.89,14.89,0,0,1,30.23,70V50.26A14.9,14.9,0,0,1,45.11,35.38H64.89A14.9,14.9,0,0,1,79.77,50.26V70A14.89,14.89,0,0,1,64.89,84.91ZM45.11,40A10.24,10.24,0,0,0,34.89,50.26V70A10.23,10.23,0,0,0,45.11,80.25H64.89A10.23,10.23,0,0,0,75.11,70V50.26A10.24,10.24,0,0,0,64.89,40Z"/></svg>