<?xml version="1.0" encoding="utf-8"?>
<!-- Generator: Adobe Illustrator 26.0.3, SVG Export Plug-In . SVG Version: 6.00 Build 0)  -->
<svg version="1.1" id="Moon" xmlns="http://www.w3.org/2000/svg" xmlns:xlink="http://www.w3.org/1999/xlink" x="0px" y="0px"
	 viewBox="0 0 255.1 255.1" style="enable-background:new 0 0 255.1 255.1;" xml:space="preserve">
<style type="text/css">
	#Moon:hover .st1 {fill: silver;}
	.st0{fill:#A67C52;}
	.st1{fill:#A67C52;}
</style>
<script>
	//define the variables first (the elements you want the user to interact with)
	let theIcon = document.querySelector("#Moon");

	function logMyId() { console.log('clicked on an element: ', this.id);}

	//define the user events that drive interactivity (click, hover, whatever)
	theIcon.addEventListener("click", logMyId);
</script>
<g id="Shine_Moon">
	<path id="shine" class="st0" d="M129.6,72.9c-0.6,0-1-0.4-1-1V13.2c0-0.6,0.4-1,1-1s1,0.4,1,1v58.7
		C130.6,72.5,130.2,72.9,129.6,72.9z M130.6,246.5v-58.7c0-0.6-0.4-1-1-1s-1,0.4-1,1v58.7c0,0.6,0.4,1,1,1S130.6,247,130.6,246.5
		L130.6,246.5z M72.7,129.8c0-0.6-0.4-1-1-1H13c-0.6,0-1,0.4-1,1s0.4,1,1,1h58.7C72.3,130.8,72.7,130.4,72.7,129.8z M247.3,129.8
		c0-0.6-0.4-1-1-1h-58.7c-0.6,0-1,0.4-1,1s0.4,1,1,1h58.7C246.9,130.8,247.3,130.4,247.3,129.8L247.3,129.8z M89.4,89.6
		c0.4-0.4,0.4-1,0-1.4L60.1,58.8c-0.5-0.3-1.1-0.2-1.4,0.3c-0.2,0.3-0.2,0.8,0,1.1L88,89.6c0.2,0.2,0.4,0.3,0.7,0.3
		C89,89.9,89.2,89.8,89.4,89.6z M200.6,200.8c0.4-0.4,0.4-1,0-1.4l-29.3-29.3c-0.5-0.3-1.1-0.2-1.4,0.3c-0.2,0.3-0.2,0.8,0,1.1
		l29.3,29.3c0.2,0.2,0.4,0.3,0.7,0.3C200.2,201.1,200.5,201,200.6,200.8z M60.1,200.8l29.3-29.3c0.3-0.5,0.2-1.1-0.3-1.4
		c-0.3-0.2-0.8-0.2-1.1,0l-29.3,29.3c-0.4,0.4-0.4,1,0,1.4C59.1,201.2,59.7,201.2,60.1,200.8L60.1,200.8z M171.3,89.6l29.3-29.3
		c0.3-0.5,0.2-1.1-0.3-1.4c-0.3-0.2-0.8-0.2-1.1,0l-29.3,29.3c-0.4,0.4-0.4,1,0,1.4c0.2,0.2,0.4,0.3,0.7,0.3
		C170.9,89.8,171.1,89.7,171.3,89.6z M108.4,77c0.5-0.2,0.7-0.8,0.5-1.3L93.5,37.2c-0.3-0.5-0.9-0.6-1.4-0.3c-0.3,0.2-0.5,0.6-0.4,1
		l15.5,38.5C107.3,77,107.9,77.2,108.4,77z M167.1,223c0.5-0.2,0.7-0.8,0.5-1.3l-15.5-38.5c-0.3-0.5-0.9-0.6-1.4-0.3
		c-0.3,0.2-0.5,0.6-0.4,1l15.5,38.5c0.2,0.4,0.5,0.6,0.9,0.6C166.9,223.1,167,223,167.1,223z M37.8,167.9l38.5-15.5
		c0.5-0.3,0.6-0.9,0.3-1.4c-0.2-0.3-0.6-0.5-1-0.4L37.1,166c-0.5,0.2-0.7,0.8-0.5,1.3c0.2,0.4,0.5,0.6,0.9,0.6
		C37.6,167.9,37.7,167.9,37.8,167.9z M183.8,109.1l38.5-15.5c0.5-0.2,0.7-0.8,0.5-1.3c-0.2-0.5-0.8-0.7-1.3-0.5L183,107.3
		c-0.5,0.2-0.7,0.8-0.4,1.3c0.2,0.3,0.5,0.5,0.8,0.5C183.5,109.2,183.6,109.2,183.8,109.1L183.8,109.1z M77.3,107.5
		c0.2-0.5,0-1.1-0.5-1.3L38.6,90c-0.5-0.1-1.1,0.2-1.2,0.8c-0.1,0.4,0.1,0.8,0.4,1.1L76,108C76.5,108.2,77.1,108,77.3,107.5
		L77.3,107.5z M222,169.2c0.2-0.5,0-1.1-0.5-1.3l-38.2-16.3c-0.5-0.1-1.1,0.2-1.2,0.8c-0.1,0.4,0.1,0.8,0.4,1.1l38.2,16.2
		c0.1,0.1,0.2,0.1,0.4,0.1C221.5,169.8,221.8,169.5,222,169.2z M91.6,221.7l16.3-38.2c0.1-0.5-0.2-1.1-0.8-1.2
		c-0.4-0.1-0.8,0.1-1.1,0.4l-16.3,38.2c-0.2,0.5,0,1.1,0.5,1.3c0.1,0.1,0.3,0.1,0.4,0.1C91.1,222.3,91.4,222,91.6,221.7z
		 M153.3,76.9l16.3-38.2c0.1-0.5-0.2-1.1-0.8-1.2c-0.4-0.1-0.8,0.1-1.1,0.4l-16.3,38.2c-0.2,0.5,0,1.1,0.5,1.3
		c0.1,0.1,0.2,0.1,0.4,0.1C152.8,77.5,153.1,77.3,153.3,76.9z M83.2,97c0.3-0.4,0.2-1-0.2-1.4L65.2,83.1c-0.4-0.4-1-0.4-1.4,0
		c-0.4,0.4-0.4,1,0,1.4c0.1,0.1,0.2,0.2,0.3,0.2l17.7,12.5C82.2,97.5,82.8,97.4,83.2,97z M195.5,176.4c0.3-0.4,0.2-1-0.2-1.4
		l-17.7-12.5c-0.4-0.4-1-0.4-1.4,0s-0.4,1,0,1.4c0.1,0.1,0.2,0.2,0.3,0.2l17.7,12.5C194.6,177,195.2,176.9,195.5,176.4z M84.5,195.5
		L97,177.7c0.4-0.4,0.4-1,0-1.4c-0.4-0.4-1-0.4-1.4,0c-0.1,0.1-0.2,0.2-0.2,0.3l-12.5,17.7c-0.3,0.4-0.2,1,0.2,1.4
		c0.2,0.1,0.4,0.2,0.6,0.2C84,195.8,84.3,195.7,84.5,195.5L84.5,195.5z M163.9,83.1l12.5-17.7c0.4-0.4,0.4-1,0-1.4
		c-0.4-0.4-1-0.4-1.4,0c-0.1,0.1-0.2,0.2-0.2,0.3L162.3,82c-0.3,0.4-0.2,1,0.2,1.4c0.2,0.1,0.4,0.2,0.6,0.2
		C163.4,83.5,163.7,83.4,163.9,83.1z M73.9,118.3c0.1-0.5-0.2-1-0.8-1.2l-21.3-4.4c-0.6,0-1,0.4-1,1c0,0.4,0.2,0.8,0.6,0.9l21.3,4.4
		h0.2C73.4,119,73.8,118.7,73.9,118.3L73.9,118.3z M208.6,146.2c0.1-0.5-0.2-1-0.8-1.2l-21.3-4.4c-0.5-0.2-1.1,0-1.3,0.5
		s0,1.1,0.5,1.3c0.1,0.1,0.3,0.1,0.4,0.1l21.3,4.4h0.2C208.1,147,208.5,146.7,208.6,146.2z M114.4,208l4.4-21.3c0-0.6-0.4-1-1-1
		c-0.4,0-0.8,0.2-0.9,0.6l-4.4,21.3c-0.1,0.5,0.2,1,0.8,1.2h0.2C113.9,208.8,114.3,208.4,114.4,208z M142.4,73.3l4.4-21.3
		c0.2-0.5,0-1.1-0.5-1.3c-0.5-0.2-1.1,0-1.3,0.5c-0.1,0.1-0.1,0.3-0.1,0.4l-4.4,21.3c-0.1,0.5,0.2,1,0.8,1.2c0.1,0,0.1,0,0.2,0
		C141.9,74.1,142.3,73.8,142.4,73.3z M51.3,144.3l21.4-3.7c0.5-0.2,0.8-0.8,0.6-1.3c-0.1-0.4-0.5-0.7-0.9-0.7L51,142.3
		c-0.5,0.2-0.8,0.7-0.6,1.3c0.1,0.4,0.4,0.6,0.8,0.7L51.3,144.3z M186.9,121l21.4-3.7c0.5-0.2,0.8-0.8,0.6-1.3
		c-0.1-0.4-0.5-0.6-0.9-0.6l-21.4,3.7c-0.5,0.1-0.9,0.6-0.8,1.1c0.1,0.5,0.5,0.8,1,0.8L186.9,121z M143.3,209.3
		c0.5-0.1,0.9-0.6,0.8-1.1l-3.7-21.4c-0.2-0.5-0.8-0.8-1.3-0.6c-0.4,0.1-0.7,0.5-0.7,0.9l3.7,21.4c0.1,0.5,0.5,0.8,1,0.8
		L143.3,209.3z M120,73.7c0.5-0.1,0.9-0.6,0.8-1.1l-3.7-21.4c-0.2-0.5-0.8-0.8-1.3-0.6c-0.4,0.1-0.6,0.5-0.6,0.9l3.7,21.4
		c0.1,0.5,0.5,0.8,1,0.8L120,73.7z M98.5,82.2c0.4-0.3,0.6-0.9,0.3-1.3L86.9,62.6c-0.4-0.4-1-0.4-1.4-0.1c-0.3,0.3-0.4,0.7-0.2,1.1
		l11.9,18.2c0.2,0.3,0.5,0.4,0.8,0.4C98.2,82.3,98.4,82.3,98.5,82.2L98.5,82.2z M173.7,197.3c0.4-0.3,0.6-0.9,0.3-1.3l-11.9-18.2
		c-0.3-0.4-0.9-0.6-1.4-0.3c-0.4,0.3-0.6,0.9-0.3,1.4l11.9,18.2C172.7,197.5,173.3,197.6,173.7,197.3L173.7,197.3z M63.5,174.2
		l18.2-11.9c0.4-0.3,0.6-0.9,0.3-1.3c-0.3-0.4-0.9-0.6-1.3-0.3l-18.2,11.8c-0.4,0.3-0.6,0.9-0.3,1.4
		C62.5,174.4,63.1,174.5,63.5,174.2z M178.7,99l18.2-11.9c0.5-0.2,0.8-0.8,0.6-1.3c-0.2-0.5-0.8-0.8-1.3-0.6c-0.1,0-0.2,0.1-0.3,0.2
		l-18.2,11.8c-0.4,0.3-0.5,1-0.2,1.4c0.2,0.2,0.4,0.4,0.7,0.4C178.3,99.1,178.5,99.1,178.7,99z"/>
	<path id="moon-fill" class="st1" d="M100.1,129.8c0-21.8,17.7-39.5,39.5-39.5c8.2,0,16.1,2.5,22.8,7.2c-17.8-18.1-47-18.3-65.1-0.5
		s-18.3,47-0.5,65.1s47,18.3,65.1,0.5c0.2-0.2,0.3-0.3,0.5-0.5c-17.8,12.6-42.5,8.3-55.1-9.5C102.6,146,100.1,138,100.1,129.8z"/>
</g>
</svg>
