<?xml version="1.0" encoding="utf-8"?>
<!-- Generator: Adobe Illustrator 26.0.3, SVG Export Plug-In . SVG Version: 6.00 Build 0)  -->
<svg version="1.1" id="Moon2" xmlns="http://www.w3.org/2000/svg" xmlns:xlink="http://www.w3.org/1999/xlink" x="0px" y="0px"
	 viewBox="0 0 255.1 255.1" style="enable-background:new 0 0 255.1 255.1;" xml:space="preserve">
<style type="text/css">
	#Moon2:hover .st0 {fill: silver;}
	.st0{fill:#FFFFFF;}
	.st1{fill:#A67C52;}
</style>
<script>
	//define the variables first (the elements you want the user to interact with)
	let theIcon = document.querySelector("#Moon2");

	function logMyId() { console.log('clicked on an element: ', this.id);}

	//define the user events that drive interactivity (click, hover, whatever)
	theIcon.addEventListener("click", logMyId);
</script>
<g id="Moon-2">
	<path id="background-moon" class="st0" d="M130.5,221.6
		c-50.9,0-92.1-41.2-92.1-92.1c0-50.9,41.2-92.1,92.1-92.1c50.9,0,92.1,41.2,92.1,92.1c0,0,0,0,0,0
		C222.6,180.4,181.4,221.6,130.5,221.6z"/>
	<path id="border" class="st1" d="M130.2,220.9c-50.9,0-92.1-41.2-92.1-92.1s41.2-92.1,92.1-92.1s92.1,41.2,92.1,92.1c0,0,0,0,0,0
		C222.3,179.6,181,220.9,130.2,220.9z M130.2,38.8c-49.7,0-90,40.3-90,90s40.3,90,90,90s90-40.3,90-90
		C220.1,79.1,179.9,38.8,130.2,38.8L130.2,38.8z"/>
	<path id="craters" class="st1" d="M188.5,95.9c-7,0-12.7-5.7-12.7-12.7c0-7,5.7-12.7,12.7-12.7c7,0,12.7,5.7,12.7,12.7c0,0,0,0,0,0
		C201.1,90.2,195.5,95.9,188.5,95.9z M188.5,72.7c-5.8,0-10.5,4.7-10.5,10.5c0,5.8,4.7,10.5,10.5,10.5c5.8,0,10.5-4.7,10.5-10.5
		C199,77.4,194.3,72.7,188.5,72.7z M57.2,127.7c-7,0-12.7-5.7-12.7-12.7s5.7-12.7,12.7-12.7S69.8,108,69.8,115c0,0,0,0,0,0
		C69.8,122,64.2,127.6,57.2,127.7L57.2,127.7z M57.2,104.5c-5.8,0-10.5,4.7-10.5,10.5c0,5.8,4.7,10.5,10.5,10.5s10.5-4.7,10.5-10.5
		c0,0,0,0,0,0C67.7,109.2,63,104.5,57.2,104.5C57.2,104.4,57.2,104.4,57.2,104.5L57.2,104.5z M101.6,64.2c-4.7,0-8.4-3.8-8.4-8.4
		s3.8-8.4,8.4-8.4c4.7,0,8.4,3.8,8.4,8.4C110.1,60.4,106.3,64.1,101.6,64.2L101.6,64.2z M101.6,49.4c-3.5,0-6.3,2.8-6.3,6.3
		c0,3.5,2.8,6.3,6.3,6.3s6.3-2.8,6.3-6.3C108,52.2,105.2,49.4,101.6,49.4C101.7,49.4,101.7,49.4,101.6,49.4L101.6,49.4z
		 M199.1,157.3c-3.5,0-6.3-2.8-6.3-6.3s2.8-6.3,6.3-6.3c3.5,0,6.3,2.8,6.3,6.3C205.3,154.5,202.5,157.3,199.1,157.3L199.1,157.3z
		 M199.1,146.8c-2.3,0-4.2,1.9-4.2,4.2c0,2.3,1.9,4.2,4.2,4.2s4.2-1.9,4.2-4.2c0,0,0,0,0,0C203.2,148.7,201.4,146.8,199.1,146.8
		C199.1,146.8,199.1,146.8,199.1,146.8L199.1,146.8z M191.8,190.6c-6.3,0-11.4-5.1-11.4-11.4c0-6.3,5.1-11.4,11.4-11.4
		c6.3,0,11.4,5.1,11.4,11.4C203.2,185.5,198.1,190.6,191.8,190.6L191.8,190.6z M191.8,169.9c-5.1,0-9.3,4.1-9.3,9.3s4.1,9.3,9.3,9.3
		c5.1,0,9.3-4.1,9.3-9.3c0,0,0,0,0,0C201.1,174.1,197,169.9,191.8,169.9C191.8,169.9,191.8,169.9,191.8,169.9L191.8,169.9z
		 M171.8,49.7c0.2-0.6,0-1.2-0.6-1.4c-0.6-0.2-1.2,0-1.4,0.6c-2.3,5.4-8.4,7.9-13.8,5.6c-5-2.1-7.6-7.7-5.9-12.9
		c0.2-0.6-0.1-1.2-0.7-1.3s-1.2,0.1-1.3,0.7l0,0c-0.4,1.2-0.6,2.5-0.6,3.8c0,7,5.7,12.7,12.7,12.7C165.3,57.4,169.8,54.4,171.8,49.7
		L171.8,49.7z M119,132.6c-3.3,0-6-2.7-6-6s2.7-6,6-6s6,2.7,6,6C124.9,129.9,122.2,132.5,119,132.6L119,132.6z M119,122.8
		c-2.1,0-3.8,1.7-3.8,3.8c0,2.1,1.7,3.8,3.8,3.8s3.8-1.7,3.8-3.8l0,0C122.8,124.5,121.1,122.7,119,122.8
		C119,122.7,119,122.7,119,122.8L119,122.8z M99.9,122c-2.1,0-3.8-1.7-3.8-3.9s1.7-3.8,3.9-3.8c2.1,0,3.8,1.7,3.8,3.9c0,0,0,0,0,0
		C103.7,120.2,102,121.9,99.9,122C99.9,121.9,99.9,121.9,99.9,122L99.9,122z M99.9,116.4c-0.9,0-1.7,0.8-1.7,1.7s0.8,1.7,1.7,1.7
		c0.9,0,1.7-0.8,1.7-1.7v0C101.6,117.2,100.9,116.4,99.9,116.4C99.9,116.4,99.9,116.4,99.9,116.4L99.9,116.4z M121.1,160
		c-2.1,0-3.9-1.7-3.9-3.8c0-2.1,1.7-3.9,3.8-3.9c2.1,0,3.9,1.7,3.9,3.8c0,0,0,0,0,0C124.9,158.3,123.2,160,121.1,160z M121.1,154.5
		c-0.9,0-1.7,0.8-1.7,1.7s0.8,1.7,1.7,1.7c0.9,0,1.7-0.8,1.7-1.7c0,0,0,0,0,0C122.7,155.2,122,154.5,121.1,154.5L121.1,154.5z
		 M163.9,214.4c0.3-0.5,0.2-1.2-0.3-1.5c-53.2-35-85.3-94.5-85.2-158.2c-0.1-0.6-0.6-1-1.2-1c-0.5,0-0.9,0.5-1,1
		c-0.1,64.5,32.3,124.6,86.2,160.1c0.2,0.1,0.4,0.2,0.6,0.2C163.3,214.9,163.6,214.7,163.9,214.4L163.9,214.4z M157.6,104
		c-2.6-21.5-9.5-44.6-20.1-66.7c-0.3-0.5-0.9-0.8-1.4-0.5c-0.5,0.3-0.8,0.9-0.5,1.4c10.5,21.9,17.3,44.7,19.9,66 M154.3,152.4
		c-3.8,23.8-12.1,46.6-24.4,67.2c-0.3,0.5-0.1,1.2,0.4,1.5c0,0,0,0,0,0c0.2,0.1,0.4,0.2,0.6,0.1c0.4,0,0.7-0.2,0.9-0.5
		c12.4-20.8,20.8-43.8,24.6-67.7 M112.1,219.5c25.2-14.3,46.9-34,63.4-57.8c16.8-24.2,27.8-52,32.1-81.2c0.1-0.6-0.3-1.1-0.9-1.2
		s-1.1,0.3-1.2,0.9c-8.4,57.4-43.7,108.8-94.4,137.5c-0.5,0.3-0.7,0.9-0.4,1.5c0.2,0.3,0.5,0.5,0.9,0.5
		C111.8,219.6,112,219.6,112.1,219.5z M99.8,187.2c23.1,7.6,47.4,11.4,71.7,11.4c6.5,0,13.1-0.3,19.5-0.8c0.6,0,1-0.5,1-1.1
		c0,0,0,0,0,0c0-0.6-0.5-1-1.1-1c0,0,0,0-0.1,0c-6.4,0.5-12.9,0.8-19.3,0.8c-23.9,0-47.7-3.7-70.4-11.1 M70,175.1l2.1,1 M70.2,172.8
		c-4.7-2.3-13.9-7.6-13.9-7.6l-0.8,2c0,0,9.6,5.4,14.6,7.9 M86.8,193.3c-9.3,0-16.9-7.6-16.9-16.9c0-9.3,7.6-16.9,16.9-16.9
		c9.3,0,16.9,7.6,16.9,16.9C103.7,185.7,96.2,193.3,86.8,193.3L86.8,193.3z M86.8,161.6c-8.2,0-14.8,6.6-14.8,14.8
		c0,8.2,6.6,14.8,14.8,14.8s14.8-6.6,14.8-14.8c0,0,0,0,0,0C101.6,168.2,95,161.6,86.8,161.6L86.8,161.6z M159.8,153.1
		c-13.5,0-24.4-10.9-24.4-24.4c0-13.5,10.9-24.4,24.4-24.4c13.5,0,24.4,10.9,24.4,24.4c0,0,0,0,0,0
		C184.2,142.2,173.3,153.1,159.8,153.1L159.8,153.1z M159.8,106.6c-12.3,0-22.2,9.9-22.2,22.2s9.9,22.2,22.2,22.2
		c12.3,0,22.2-9.9,22.2-22.2C182,116.5,172.1,106.6,159.8,106.6L159.8,106.6z M51.7,171.8c1.2-0.6,2.2-1.3,3.1-2.3
		c5-4.9,5.1-12.9,0.2-17.9c-3.6-3.6-9-4.8-13.7-2.9c-0.6,0.2-0.8,0.8-0.6,1.4c0.2,0.6,0.8,0.8,1.4,0.6l0,0
		c5.4-2.2,11.5,0.4,13.7,5.8c1.6,4,0.6,8.5-2.4,11.5c-0.8,0.8-1.6,1.4-2.6,1.9c-0.5,0.3-0.7,0.9-0.4,1.5c0.2,0.3,0.5,0.5,0.9,0.5
		C51.3,171.9,51.5,171.8,51.7,171.8z"/>
</g>
</svg>
