<?xml version="1.0" encoding="utf-8"?>
<!-- Generator: Adobe Illustrator 26.0.3, SVG Export Plug-In . SVG Version: 6.00 Build 0)  -->
<svg version="1.1" id="Planet" xmlns="http://www.w3.org/2000/svg" xmlns:xlink="http://www.w3.org/1999/xlink" x="0px" y="0px"
	 viewBox="0 0 255.1 255.1" style="enable-background:new 0 0 255.1 255.1;" xml:space="preserve">
<style type="text/css">
	#Planet:hover .st0 {fill: silver;}
	.st0{fill:#FFFFFF;}
	.st1{fill:#A67C52;}
</style>
<script>
	//define the variables first (the elements you want the user to interact with)
	let theIcon = document.querySelector("#Planet");

	function logMyId() { console.log('clicked on an element: ', this.id);}

	//define the user events that drive interactivity (click, hover, whatever)
	theIcon.addEventListener("click", logMyId);
</script>
<g id="planet-2">
	<ellipse id="fill" class="st0" cx="127.8" cy="128.7" rx="91" ry="84.8"/>
	<path id="lines" class="st1" d="M127.8,214.6c-50.8,0-92.1-38.6-92.1-85.9S77,42.7,127.8,42.7S220,81.3,220,128.7
		S178.6,214.6,127.8,214.6z M127.8,45C78.3,45,38,82.6,38,128.7s40.3,83.6,89.8,83.6s89.8-37.5,89.8-83.6S177.4,45,127.8,45
		L127.8,45z M145.8,193.4c-0.3,0-0.7-0.1-0.9-0.4c-0.3-0.4-32.6-38.1-64.3-49.4c-34.7-12.4-31-53.1-29.8-62c0-0.1,0.5-0.6,0.7-0.8
		c0.4-0.6,0.8-1.2,1.3-1.8c0.5,0.2,0.7,0.8,0.6,1.3c-0.1,0.5-9,47.9,28,61.1c32.3,11.6,65,49.7,65.3,50.1c0.4,0.5,0.3,1.2-0.1,1.6
		C146.3,193.3,146.1,193.4,145.8,193.4z M153,193.7c-11.1,0.1-23.3,1.1-33.5,4.2c-6.1,1.8-12.4,2.7-18.8,2.7
		c-11.4-0.1-22.7-2.6-33-7.4c-0.6-0.2-0.9-0.9-0.6-1.5c0.2-0.6,0.9-0.9,1.5-0.6c0.1,0,0.1,0.1,0.2,0.1c0.2,0.1,24.2,12.4,50,4.6
		c10.6-3.2,23.3-4.3,34.7-4.3 M165.6,191.7c11.3,0.5,19.5,1.7,19.7,1.7c0.6,0.1,1.1,0.7,1,1.3s-0.7,1.1-1.3,1l0,0
		c-0.2,0-8.2-1.2-19.3-1.7 M214.8,105.8c-0.3,0-0.6-0.1-0.8-0.3c-0.3-0.3-27.5-25.9-46.8-38.4s-51-21.1-51.3-21.1
		c-0.6-0.2-1-0.8-0.8-1.4c0.2-0.6,0.8-0.9,1.4-0.8c0.3,0.1,32.3,8.8,51.9,21.4s46.9,38.4,47.2,38.7c0.5,0.4,0.5,1.2,0,1.6
		C215.4,105.7,215.1,105.8,214.8,105.8z M180.1,148.9c-5.4,0-9.9-4.2-9.9-9.3s4.4-9.3,9.9-9.3s9.9,4.2,9.9,9.3
		S185.6,148.9,180.1,148.9z M180.1,132.6c-4.2,0-7.6,3.1-7.6,7s3.4,7,7.6,7s7.6-3.1,7.6-7S184.3,132.6,180.1,132.6z M90.6,184.9
		c-5.4,0-9.9-4.2-9.9-9.3s4.4-9.3,9.9-9.3s9.9,4.2,9.9,9.3S96.1,184.9,90.6,184.9z M90.6,168.6c-4.2,0-7.6,3.1-7.6,7s3.4,7,7.6,7
		s7.6-3.1,7.6-7S94.8,168.6,90.6,168.6z M69.1,169c-3.6-0.2-6.4-3.4-6.2-7c0.2-3.6,3.4-6.4,7-6.2c3.5,0.2,6.2,3.1,6.2,6.6
		C76,166.2,72.9,169.1,69.1,169C69.1,169,69.1,169,69.1,169z M69.1,158.2c-2.4,0.2-4.1,2.3-3.9,4.6c0.2,2.4,2.3,4.1,4.6,3.9
		c2.2-0.2,3.9-2,3.9-4.3C73.6,160,71.6,158.1,69.1,158.2L69.1,158.2z M159.9,78.8c-3.6-0.2-6.4-3.4-6.2-7c0.2-3.6,3.4-6.4,7-6.2
		c3.5,0.2,6.2,3.1,6.2,6.6C166.8,76,163.7,78.9,159.9,78.8z M159.9,68c-2.4,0.2-4.1,2.3-3.9,4.6c0.2,2.4,2.3,4.1,4.6,3.9
		c2.2-0.2,3.9-2,3.9-4.3C164.5,69.8,162.4,67.9,159.9,68L159.9,68z M159.9,200.4c-3.6-0.2-6.4-3.4-6.2-7c0.2-3.6,3.4-6.4,7-6.2
		c3.5,0.2,6.2,3.1,6.2,6.6C166.8,197.5,163.7,200.5,159.9,200.4z M159.9,189.5c-2.4,0.2-4.1,2.3-3.9,4.6c0.2,2.4,2.3,4.1,4.6,3.9
		c2.2-0.2,3.9-2,3.9-4.3C164.5,191.3,162.4,189.4,159.9,189.5z M149.3,125.1c26.4,24.1,42.5,62.8,42.7,63.3c0.2,0.6,0,1.3-0.6,1.5
		c-0.1,0.1-0.3,0.1-0.4,0.1c-0.5,0-0.9-0.3-1.1-0.7c-0.2-0.4-16.1-38.8-42.2-62.5 M121.4,94.7c-7.4-23.6,7-45.2,7.2-45.5
		c0.4-0.5,1.1-0.6,1.6-0.2c0.5,0.4,0.6,1,0.3,1.5c-4.5,7.1-7.4,15.1-8.6,23.5c-1,6.9-0.4,14,1.8,20.7 M129.4,138.1
		c-13.5,0-24.4-10.3-24.4-22.9s11-22.9,24.4-22.9s24.4,10.3,24.4,22.9S142.8,138.1,129.4,138.1z M129.4,94.7
		c-12.2,0-22.1,9.2-22.1,20.6s9.9,20.6,22.1,20.6s22.1-9.2,22.1-20.6S141.6,94.7,129.4,94.7z"/>
</g>
</svg>
