<?xml version="1.0" encoding="utf-8"?>
<!-- Generator: Adobe Illustrator 26.0.3, SVG Export Plug-In . SVG Version: 6.00 Build 0)  -->
<svg version="1.1" id="rain" xmlns="http://www.w3.org/2000/svg" xmlns:xlink="http://www.w3.org/1999/xlink" x="0px" y="0px"
	 viewBox="0 0 255.1 255.1" style="enable-background:new 0 0 255.1 255.1;" xml:space="preserve">
<style type="text/css">
	#rain:hover .st0 {fill: silver;}
	.st0{fill:#FFFFFF;}
	.st1{fill:#A67C52;}
	.st2{fill:none;stroke:#A67C52;stroke-width:2;stroke-linecap:round;stroke-linejoin:round;}
</style>
<script>
	//define the variables first (the elements you want the user to interact with)
	let theIcon = document.querySelector("#rain");

	function logMyId() { console.log('clicked on an element: ', this.id);}

	//define the user events that drive interactivity (click, hover, whatever)
	theIcon.addEventListener("click", logMyId);
</script>
<g id="Cloud-Rain">
	<g id="clound">
		<path id="fill" class="st0" d="M123.9,178.8c-1.3,0-2.7,0-4.1-0.1c-9.5-0.6-18.7-3.3-27-8.1c-0.1-0.1-0.3-0.1-0.5-0.1
			c-0.2,0-0.3,0-0.5,0.1c-7.6,4.2-16.2,6.5-24.9,6.5c-1.1,0-2.2,0-3.3-0.1c-28.3-1.9-49.8-26.3-48-54.7c1.8-27,24.1-48,51.2-48.1
			c1.1,0,2.2,0,3.3,0.1c1.8,0.1,3.5,0.3,5.3,0.6h0.2c0.3,0,0.6-0.1,0.8-0.3C88.2,60.9,105.5,53,123.7,53c1.4,0,2.7,0,4.1,0.1
			c24.1,1.4,45.2,16.6,54.2,39c0.2,0.4,0.5,0.6,0.9,0.6l0,0h1.3c0.8,0,1.6,0,2.4,0.1c13.5,0.8,25.5,8.6,31.8,20.6
			c0.2,0.3,0.5,0.5,0.9,0.5h1.1c12.9,1.1,22.5,12.4,21.4,25.3c-1,11.9-10.9,21.2-22.8,21.4l0,0c-0.5,0-1,0-1.5,0
			c-2.1-0.1-4.1-0.5-6.1-1.2c-0.1,0-0.2,0-0.3-0.1c-0.3,0-0.5,0.1-0.7,0.3c-7.1,6.6-16.4,10.2-26.1,10.2c-0.8,0-1.7,0-2.5-0.1
			c-6.1-0.4-11.9-2.2-17.1-5.3c-0.4-0.2-0.8-0.2-1.1,0.1C152.3,173.8,138.3,178.8,123.9,178.8z"/>
		<path id="line4" class="st1" d="M123.7,54c1.3,0,2.7,0,4,0.1c23.7,1.5,44.4,16.4,53.4,38.3c0.3,0.8,1.1,1.2,1.9,1.2l0,0
			c0.4,0,0.9,0,1.3,0c0.8,0,1.6,0,2.4,0.1c13.1,0.8,24.9,8.4,30.9,20.1c0.3,0.6,1,1.1,1.7,1.1h1.1c12.4,0.6,21.9,11.2,21.3,23.5
			c-0.6,12-10.6,21.4-22.7,21.3c-0.5,0-1,0-1.4,0c-2-0.1-3.9-0.5-5.8-1.2c-0.2-0.1-0.4-0.1-0.6-0.1c-0.5,0-1,0.2-1.4,0.5
			c-6.9,6.4-16,9.9-25.4,9.9c-0.8,0-1.6,0-2.4-0.1c-5.9-0.4-11.6-2.1-16.7-5.1c-0.3-0.2-0.6-0.3-1-0.3c-0.5,0-0.9,0.2-1.3,0.4
			c-11,9-24.8,13.9-39.1,13.9c-1.3,0-2.7,0-4-0.1c-9.4-0.6-18.5-3.3-26.6-7.9c-0.3-0.2-0.6-0.3-1-0.3c-0.3,0-0.7,0.1-1,0.2
			c-7.5,4.2-15.9,6.3-24.4,6.4c-1.1,0-2.2,0-3.3-0.1c-27.8-1.4-49.2-25.1-47.8-52.9c1.4-27,23.9-48.2,51-47.8c1.1,0,2.2,0,3.3,0.1
			c1.7,0.1,3.5,0.3,5.2,0.6c0.1,0,0.2,0,0.3,0c0.6,0,1.1-0.2,1.5-0.7C88.8,61.8,105.8,54,123.7,54 M123.7,52c-18.5,0-36.1,8-48.2,22
			c-1.8-0.3-3.6-0.5-5.4-0.6c-1.1-0.1-2.3-0.1-3.4-0.1c-29,0.1-52.4,23.6-52.3,52.5c0,27.6,21.5,50.4,49,52.2
			c1.1,0.1,2.3,0.1,3.4,0.1c8.9,0,17.6-2.3,25.4-6.6c8.4,4.8,17.8,7.6,27.5,8.2c1.4,0.1,2.8,0.1,4.1,0.1c14.7,0,28.9-5.1,40.3-14.4
			c5.4,3.2,11.4,5,17.6,5.4c0.9,0.1,1.7,0.1,2.6,0.1c9.9,0,19.5-3.7,26.8-10.5c2,0.7,4.2,1.1,6.3,1.2c0.5,0,1.1,0.1,1.6,0.1
			c13.5,0,24.4-11,24.4-24.5c0-12.9-10-23.5-22.9-24.4h-1.1c-6.4-12.3-18.8-20.3-32.6-21.2c-0.8-0.1-1.7-0.1-2.5-0.1H183
			c-9.3-22.6-30.7-38-55.1-39.6C126.5,52,125.1,52,123.7,52L123.7,52z"/>
		<path id="line3" class="st2" d="M121.3,89.8c0,4.4-3.6,8-8,8s-8-3.6-8-8c0-4.4,4.4-8,8.8-8h0.3c9,0,16.3,7.2,16.3,16.2
			c0,0,0,0,0,0.1c0,9-6.4,16.2-15.4,16.2h-0.6c-14.2,0-25.8-11.5-25.8-25.8c0-14.2,11.5-25.8,25.8-25.8c0,0,0,0,0,0
			c7.3,0,14.3,3,19.3,8.4l1.1,1.2c3.9,5.7,6,12.5,6,19.4c0,19.1-15.8,34.7-35.2,34.7s-35.2-15.5-35.2-34.7c0-6.9,2.1-13.6,5.9-19.3"
			/>
		<path id="line2" class="st2" d="M213.8,132.2c0-2.3,1.9-4.2,4.1-4.2c2.3,0,4.2,1.9,4.2,4.2c0,2.3-2.3,4.1-4.6,4.1h-0.1
			c-4.6,0-8.4-3.8-8.4-8.4c0-4.7,3.4-8.4,8-8.4h0.3c7.4-0.2,13.6,5.6,13.8,13s-5.6,13.6-13,13.8c-0.2,0-0.5,0-0.7,0
			c-3.8,0-7.4-1.6-10-4.3l-0.6-0.6c-2-3-3.1-6.5-3.1-10.1c0.1-10,8.3-18.1,18.3-18c0,0,0,0,0,0"/>
		<path id="line1" class="st2" d="M85.4,159.8c-2.2,1.7-5.3,1.2-7-1c-1.3-1.8-1.3-4.2,0-6c1.9-1.9,5.4-1.6,7.4,0.3l0.1,0.1
			c4,3.9,4,10.3,0.1,14.3c0,0,0,0,0,0c-3.9,3.9-9.9,4.3-13.9,0.4l-0.2-0.2c-6.6-5.9-7.2-16-1.3-22.6s16-7.2,22.6-1.3
			c0.4,0.4,0.8,0.8,1.2,1.2c3.2,3.2,5,7.6,4.9,12.1l-0.3,3.3c-0.8,4.1-3.2,7.7-6.4,10.9"/>
	</g>
	<g id="rain-2">
		<path class="st1" d="M49.5,201.1l12.7-12.7c1-1,2.5-1,3.5,0l0,0c1,1,1,2.5,0,3.5L53,204.6c-1,1-2.5,1-3.5,0l0,0
			C48.5,203.6,48.5,202.1,49.5,201.1z"/>
		<path class="st1" d="M57.8,214.4L85,187.2c0.9-0.9,2.5-0.9,3.4,0l0,0c0.9,0.9,0.9,2.5,0,3.4l-27.2,27.2c-0.9,0.9-2.5,0.9-3.4,0
			l0,0C56.8,216.9,56.8,215.3,57.8,214.4z"/>
		<path class="st1" d="M92.6,205.9l12.7-12.7c1-1,2.5-1,3.5,0l0,0c1,1,1,2.5,0,3.5l-12.7,12.7c-1,1-2.5,1-3.5,0l0,0
			C91.7,208.4,91.7,206.8,92.6,205.9z"/>
		<path class="st1" d="M100.9,219.1l27.2-27.2c0.9-0.9,2.5-0.9,3.4,0l0,0c0.9,0.9,0.9,2.5,0,3.4l-27.2,27.2c-0.9,0.9-2.5,0.9-3.4,0
			l0,0C100,221.6,100,220.1,100.9,219.1z"/>
		<path class="st1" d="M148.8,215.8l12.7-12.7c1-1,2.5-1,3.5,0l0,0c1,1,1,2.5,0,3.5l-12.7,12.7c-1,1-2.5,1-3.5,0l0,0
			C147.8,218.3,147.8,216.7,148.8,215.8z"/>
		<path class="st1" d="M135.6,207.5l27.2-27.2c0.9-0.9,2.5-0.9,3.4,0l0,0c0.9,0.9,0.9,2.5,0,3.4L139,211c-0.9,0.9-2.5,0.9-3.4,0l0,0
			C134.7,210,134.7,208.5,135.6,207.5z"/>
		<path class="st1" d="M70.5,229.4l12.7-12.7c1-1,2.5-1,3.5,0l0,0c1,1,1,2.5,0,3.5L74,232.9c-1,1-2.5,1-3.5,0l0,0
			C69.6,232,69.6,230.4,70.5,229.4z"/>
		<path class="st1" d="M114.3,230.3l12.7-12.7c1-1,2.5-1,3.5,0l0,0c1,1,1,2.5,0,3.5l-12.7,12.7c-1,1-2.5,1-3.5,0l0,0
			C113.3,232.8,113.3,231.2,114.3,230.3z"/>
	</g>
</g>
</svg>
