<?xml version="1.0" encoding="utf-8"?>
<!-- Generator: Adobe Illustrator 26.0.3, SVG Export Plug-In . SVG Version: 6.00 Build 0)  -->
<svg version="1.1" id="saturn" xmlns="http://www.w3.org/2000/svg" xmlns:xlink="http://www.w3.org/1999/xlink" x="0px" y="0px"
	 viewBox="0 0 255.1 255.1" style="enable-background:new 0 0 255.1 255.1;" xml:space="preserve">
<style type="text/css">
	#saturn:hover .st1 {fill: silver;}
	.st0{fill:#A67C52;}
	.st1{fill:#A67C52;}
	.st2{fill:#A67C52;}
</style>
<script>
	//define the variables first (the elements you want the user to interact with)
	let theIcon = document.querySelector("#saturn");

	function logMyId() { console.log('clicked on an element: ', this.id);}

	//define the user events that drive interactivity (click, hover, whatever)
	theIcon.addEventListener("click", logMyId);
</script>
<g id="saturn-2">
	<path id="lines" class="st0" d="M131,187.9c-25.2,0-47.5-16.3-55.3-40.2c-0.1-0.4,0.1-0.9,0.5-1c0.4-0.1,0.9,0.1,1,0.5
		c6.1,18.9,21.7,33.3,41,37.7c19.7,4.5,40.3-1.7,54.1-16.3c0.3-0.3,1.4,0.8,1.1,1.1C162.5,181.3,147.1,187.9,131,187.9z M73.7,128.3
		L73.7,128.3c-0.4,0-0.8-0.4-0.8-0.8c0.2-3.7,0.7-7.4,1.5-11c7.3-31.3,38.7-50.8,70-43.5c10.8,2.5,20.6,8,28.3,15.9
		c0.3,0.3,0.3,0.8,0,1.1c-0.3,0.3-0.8,0.3-1.1,0c-21.9-22.3-57.8-22.7-80.2-0.7c-7.7,7.5-13,17.1-15.5,27.6
		c-0.8,3.5-1.3,7.1-1.4,10.7C74.4,128,74.1,128.3,73.7,128.3z M183.1,152.3c1.4-3.1,2.4-6.4,3.2-9.8c4.4-18.9-1.1-38.8-14.8-52.6
		c-0.3-0.3-0.3-0.8,0-1.1s0.8-0.3,1.1,0c14,14.2,19.7,34.6,15.1,54c-0.8,3.4-1.9,6.8-3.3,10C184.4,153.2,182.9,152.7,183.1,152.3z
		 M149.7,88.3c-4.6,0-9.2-0.5-13.6-1.6c-8.5-2-16.4-5.8-23.3-11.1c-0.3-0.3-0.4-0.8-0.1-1.1c0.3-0.3,0.8-0.4,1.1-0.1l0,0
		c6.7,5.2,14.4,8.9,22.6,10.8c9.9,2.3,20.3,2,30.1-1c0.4-0.1,0.9,0.1,1,0.5c0,0,0,0,0,0c0.1,0.4-0.1,0.9-0.5,1c0,0,0,0,0,0
		C161.4,87.4,155.5,88.3,149.7,88.3z M130.2,109.8c-4.6,0-9.3-0.5-13.8-1.6c-9.3-2.2-19.9-8-28.2-15.7c-0.3-0.3-0.3-0.8,0.1-1.1
		c0.3-0.2,0.7-0.3,1,0c8.1,7.5,18.4,13.2,27.5,15.3c19.9,4.7,40.8-1.4,55-16.1c0.3-0.3,0.8-0.3,1.1,0c0.3,0.3,0.3,0.8,0,1.1
		c0,0,0,0,0,0C161.7,103.3,146.3,109.8,130.2,109.8z M135.9,127.7c-7.1,0-14.1-0.8-21-2.4c-13.5-3.1-26.1-9.3-36.8-18
		c-0.3-0.3-0.4-0.8-0.1-1.1c0.3-0.3,0.8-0.4,1.1-0.1c30.3,24.5,72.9,26.7,105.6,5.6c0.4-0.2,0.8-0.1,1.1,0.2s0.1,0.8-0.2,1.1l0,0
		C170.8,122.6,153.5,127.7,135.9,127.7z M155.3,182.2c-0.2,0-0.3-0.1-0.5-0.2c-17.7-13.2-40.9-16.4-61.5-8.4c-0.4,0.2-0.9,0-1-0.4
		c-0.2-0.4,0-0.9,0.4-1c21.1-8.2,44.9-5,63,8.6c0.3,0.3,0.4,0.8,0.1,1.1C155.8,182.1,155.5,182.2,155.3,182.2z"/>
	<path id="ring-fill" class="st1" d="M49.5,96.4c-22,0.2-35.9,4-37.4,10.6s9.5,16.2,30.3,26.1c21.4,10.2,50.7,19.7,82.6,26.9
		s62.5,11.1,86.1,11.1c23,0,37-3.9,38.6-10.6c2-8.9-17.9-22.4-51.1-34.9c12.6,6.7,23.7,14,22.4,19.8c-2.8,12.2-49.2,9.4-92.6-0.3
		s-86.5-27.2-83.8-39.4c1.3-5.8,14.5-7.5,28.8-8.2c-1.6-0.1-3.3-0.3-4.9-0.4C61.7,96.6,55.3,96.4,49.5,96.4z"/>
	<path id="ring" class="st2" d="M212.1,172.7c-22.8,0.2-53.7-3.5-87.7-11.2C57,146.3,6.9,122.2,10.4,106.6
		c2.1-9.5,23.3-13.6,58.1-11.2c3.8,0.3,7.8,0.6,11.8,1l0,0c1.5,0.2,2.4,0.3,2.8,0.3c0.3,0,1.1,0.2,1,0.9s-0.1,0.8-4.7,1
		c-8,0.2-32.2,1-33.6,7.2c-2,8.7,30.8,25.8,82.6,37.5s88.7,10.2,90.7,1.5c1.4-6.3-20-17.3-27.1-20.9c-1.1-0.6-1.9-1-2.5-1.3
		c-0.9-0.5-1.6-0.8-1.2-1.6s0.7-0.7,4,0.5c39.1,13.9,61,28.5,58.6,39.1C249.3,168.6,234.6,172.5,212.1,172.7z M49.3,96.4
		c-22,0.2-35.9,4-37.4,10.6s9.5,16.2,30.3,26.1c21.4,10.2,50.7,19.7,82.6,26.9s62.5,11.1,86.1,11.1c23,0,37-3.9,38.6-10.6
		c2-8.9-17.9-22.4-51.1-34.9c12.6,6.7,23.7,14,22.4,19.8c-2.8,12.2-49.2,9.4-92.6-0.3s-86.5-27.2-83.8-39.4
		c1.3-5.8,14.5-7.5,28.8-8.2c-1.6-0.1-3.3-0.3-4.9-0.4C61.5,96.5,55.2,96.3,49.3,96.4z"/>
</g>
</svg>
