<?xml version="1.0" encoding="utf-8"?>
<!-- Generator: Adobe Illustrator 26.0.3, SVG Export Plug-In . SVG Version: 6.00 Build 0)  -->
<svg version="1.1" id="stars" xmlns="http://www.w3.org/2000/svg" xmlns:xlink="http://www.w3.org/1999/xlink" x="0px" y="0px"
	 viewBox="0 0 255.1 255.1" style="enable-background:new 0 0 255.1 255.1;" xml:space="preserve">
<style type="text/css">
	#stars:hover .st1 {fill: silver;}
	.st0{fill:#A67C52;}
	.st1{fill:#A67C52;}
</style>
<script>
	//define the variables first (the elements you want the user to interact with)
	let theIcon = document.querySelector("#stars");

	function logMyId() { console.log('clicked on an element: ', this.id);}

	//define the user events that drive interactivity (click, hover, whatever)
	theIcon.addEventListener("click", logMyId);
</script>
<g id="Stars-2">
	<path id="small" class="st0" d="M194.2,61.8c-9.6-2.1-17-9.7-18.8-19.4c-0.4-2.7-1.1-5.4-2.1-8l0,0c-0.9,2.6-1.6,5.3-2.1,8
		c-1.8,9.7-9.2,17.3-18.8,19.4c-2.4,0.5-4,0.9-4,0.9c1.7,0.7,3.4,1.2,5.2,1.6c9.1,2.4,16.1,9.9,17.7,19.2c0.4,2.5,1.1,5,2,7.4l0,0
		c0.9-2.4,1.6-4.9,2-7.4c1.7-9.3,8.6-16.8,17.7-19.2c1.8-0.4,3.5-1,5.2-1.6C198.3,62.7,196.6,62.3,194.2,61.8z"/>
	<polygon id="Big" class="st1" points="186.1,117.3 130.9,135.8 119.4,78.8 107.8,135.8 52.7,117.3 96.3,155.8 52.7,194.4
		107.8,175.9 119.4,232.9 130.9,175.9 186.1,194.4 142.5,155.8 	"/>
</g>
</svg>
