<?xml version="1.0" encoding="utf-8"?>
<!-- Generator: Adobe Illustrator 26.0.3, SVG Export Plug-In . SVG Version: 6.00 Build 0)  -->
<svg version="1.1" id="Shine-Star" xmlns="http://www.w3.org/2000/svg" xmlns:xlink="http://www.w3.org/1999/xlink" x="0px" y="0px"
	 viewBox="0 0 255.1 255.1" style="enable-background:new 0 0 255.1 255.1;" xml:space="preserve">
<style type="text/css">
	#Shine-Star:hover .st1 {fill: silver;}
	.st0{fill:#A67C52;}
	.st1{fill:#A67C52;}
</style>
<script>
	//define the variables first (the elements you want the user to interact with)
	let theIcon = document.querySelector("#Shine-Star");

	function logMyId() { console.log('clicked on an element: ', this.id);}

	//define the user events that drive interactivity (click, hover, whatever)
	theIcon.addEventListener("click", logMyId);
</script>
<path id="star-fill" class="st1" d="M125.1,85.3l-5.8,28.7c-0.1,0.6-0.5,1.1-1,1.3c-0.5,0.3-1.1,0.4-1.7,0.2l-27.7-9.3l22,19.4
	c0.8,0.7,0.9,2.1,0.2,2.9c-0.1,0.1-0.1,0.1-0.2,0.2l-22,19.4l27.7-9.3c0.2-0.1,0.4-0.1,0.6-0.1c0.4,0,0.7,0.1,1,0.3
	c0.5,0.3,0.9,0.8,1,1.3l5.8,28.6l5.8-28.6c0.1-0.6,0.5-1.1,1-1.3c0.3-0.2,0.6-0.3,1-0.3c0.2,0,0.4,0,0.6,0.1l27.7,9.3l-22-19.5
	c-0.8-0.7-0.9-2.1-0.2-2.9c0.1-0.1,0.1-0.1,0.2-0.2l21.8-19.4l-27.7,9.3c-0.5,0.2-1.1,0.1-1.7-0.2c-0.5-0.3-0.9-0.8-1-1.3
	L125.1,85.3"/>
<path id="star" class="st0" d="M125.1,86.8l-5.6,27.7c-0.1,0.6-0.5,1.1-1,1.3c-0.5,0.3-1.1,0.4-1.6,0.2l-26.8-9l21.2,18.7
	c0.8,0.7,0.9,2,0.2,2.8c-0.1,0.1-0.1,0.1-0.2,0.2l-21.2,18.6l26.8-9c0.2-0.1,0.4-0.1,0.6-0.1c0.4,0,0.7,0.1,1,0.3
	c0.5,0.3,0.9,0.8,1,1.3l5.6,27.6l5.6-27.6c0.1-0.6,0.5-1.1,1-1.3c0.3-0.2,0.6-0.3,1-0.3c0.2,0,0.4,0,0.6,0.1l26.8,9L139,128.6
	c-0.8-0.7-0.9-2-0.2-2.8c0.1-0.1,0.1-0.1,0.2-0.2l21.1-18.7l-26.8,9c-0.5,0.2-1.1,0.1-1.6-0.2c-0.5-0.3-0.9-0.8-1-1.3L125.1,86.8
	 M125.1,76.6l7.6,37.3l36.1-12.1l-28.6,25.2l28.6,25.2l-36.1-12.1l-7.6,37.4l-7.6-37.3l-36.1,12.1l28.5-25.2L81.4,102l36.1,12.1
	L125.1,76.6z M168.8,102.3v-1l0,0V102.3z"/>
<path id="shine" class="st0" d="M13.8,128h36.1 M50.9,128c0-0.6-0.4-1-1-1H13.8c-0.6,0-1,0.4-1,1c0,0.6,0.4,1,1,1h36.1
	C50.4,129,50.9,128.6,50.9,128z M200.1,128h36.1 M237.1,128c0-0.6-0.4-1-1-1h-36c-0.6,0-1,0.4-1,1c0,0.6,0.4,1,1,1h36.1
	C236.7,129,237.1,128.6,237.1,128z M125,16.8v29.8 M126,46.6V16.8c0-0.6-0.4-1-1-1s-1,0.4-1,1v29.8c0,0.6,0.4,1,1,1
	S126,47.1,126,46.6z M125,209.3v29.8 M126,239.1v-29.8c0-0.6-0.4-1-1-1s-1,0.4-1,1v29.8c0,0.6,0.4,1,1,1S126,239.7,126,239.1z
	 M65.7,68.7l18.6,18.6 M85,88c0.4-0.4,0.4-1,0-1.4l0,0L66.4,68c-0.5-0.3-1.1-0.2-1.4,0.3c-0.2,0.3-0.2,0.7,0,1L83.6,88
	C84,88.4,84.6,88.4,85,88z M51.5,54.4l8.2,8.2 M60.4,63.4c0.4-0.4,0.4-1,0-1.4l-8.2-8.2c-0.4-0.4-1-0.4-1.4,0s-0.4,1,0,1.4l8.2,8.2
	C59.4,63.8,60,63.8,60.4,63.4z M165.8,168.7l18.6,18.6 M185.1,188.1c0.4-0.4,0.4-1,0-1.4L166.5,168c-0.4-0.4-1-0.4-1.4,0
	s-0.4,1,0,1.4l18.6,18.6c0.2,0.2,0.4,0.3,0.7,0.3C184.7,188.4,184.9,188.3,185.1,188.1L185.1,188.1z M198.6,201.6l-8.2-8.2
	 M199.3,202.3c0.4-0.4,0.4-1,0-1.4l0,0l-8.2-8.2c-0.4-0.4-1.1-0.3-1.4,0.1c-0.3,0.4-0.3,0.9,0,1.3l8.2,8.2
	C198.3,202.7,198.9,202.7,199.3,202.3L199.3,202.3L199.3,202.3z M84.3,168.6l-19.5,19.5 M65.5,188.8L85,169.3c0.4-0.4,0.4-1,0-1.4
	s-1-0.4-1.4,0l0,0l-19.5,19.5c-0.4,0.4-0.4,1,0,1.4c0.2,0.2,0.4,0.3,0.7,0.3C65.1,189.1,65.3,189,65.5,188.8L65.5,188.8z
	 M184.4,68.7l-18.6,18.6 M166.5,88l18.6-18.6c0.3-0.5,0.2-1.1-0.3-1.4c-0.3-0.2-0.8-0.2-1.1,0l-18.6,18.6c-0.4,0.4-0.4,1,0,1.4l0,0
	C165.4,88.4,166.1,88.4,166.5,88L166.5,88z M198.6,54.4l-8.2,8.2 M191.1,63.4l8.2-8.2c0.4-0.4,0.4-1,0-1.4s-1-0.4-1.4,0l-8.2,8.3
	c-0.4,0.4-0.4,1,0,1.4c0.2,0.2,0.4,0.3,0.7,0.3C190.6,63.7,190.9,63.6,191.1,63.4z M51.5,201.6l8.2-8.2 M52.2,202.3l8.2-8.2
	c0.4-0.4,0.3-1.1-0.1-1.4c-0.4-0.3-0.9-0.3-1.3,0l-8.2,8.2c-0.4,0.4-0.4,1,0,1.4l0,0C51.1,202.7,51.8,202.7,52.2,202.3L52.2,202.3
	L52.2,202.3z M46.7,94.6l25.4,10.8 M73,105.8c0.2-0.5,0-1.1-0.5-1.3l0,0L47.1,93.7c-0.5-0.2-1.1,0-1.3,0.5l0,0
	c-0.2,0.5,0,1.1,0.5,1.3l25.4,10.8c0.1,0.1,0.3,0.1,0.4,0.1C72.5,106.4,72.8,106.2,73,105.8L73,105.8z M177.9,150.5l25.4,10.8
	 M204.2,161.7c0.2-0.5,0-1.1-0.5-1.3l-25.4-10.8c-0.5-0.2-1.1,0-1.3,0.5s0,1.1,0.5,1.3c0,0,0,0,0.1,0l25.4,10.8
	c0.1,0.1,0.3,0.1,0.4,0.1C203.7,162.3,204,162.1,204.2,161.7L204.2,161.7z M147.5,75.1l10.8-25.4 M148.4,75.4L159.2,50
	c0.2-0.5,0-1.1-0.5-1.3s-1.1,0-1.3,0.5l0,0l-10.8,25.4c-0.2,0.5,0,1.1,0.5,1.3c0.1,0.1,0.3,0.1,0.4,0.1
	C147.9,76,148.3,75.8,148.4,75.4z M102.4,180.9l-10.8,25.4 M92.5,206.6l10.8-25.4c0.2-0.5,0-1.1-0.5-1.3s-1.1,0-1.3,0.5l0,0
	l-10.8,25.4c-0.2,0.5,0,1.1,0.5,1.3c0.1,0.1,0.3,0.1,0.4,0.1C92,207.3,92.4,207,92.5,206.6z M93.2,49l10.3,25.6 M103.9,75.5
	c0.5-0.2,0.8-0.8,0.6-1.3l0,0L94.1,48.6c-0.2-0.5-0.8-0.8-1.3-0.6l0,0c-0.5,0.2-0.8,0.8-0.6,1.3L102.6,75c0.2,0.4,0.5,0.6,0.9,0.6
	C103.6,75.6,103.8,75.6,103.9,75.5z M146.4,181.3l10.3,25.6 M157.1,207.8c0.5-0.2,0.8-0.8,0.6-1.3l0,0l-10.3-25.6
	c-0.2-0.5-0.8-0.7-1.3-0.5s-0.7,0.7-0.5,1.2l10.3,25.6c0.2,0.4,0.5,0.6,0.9,0.6C156.9,207.9,157,207.9,157.1,207.8L157.1,207.8z
	 M203.9,96.2l-25.6,10.3 M178.7,107.4l25.6-10.3c0.5-0.2,0.8-0.7,0.6-1.3c-0.2-0.5-0.7-0.8-1.3-0.6h-0.1L178,105.6
	c-0.5,0.2-0.8,0.8-0.6,1.3c0.2,0.4,0.5,0.6,0.9,0.6C178.5,107.5,178.6,107.5,178.7,107.4z M46,159.7l25.6-10.3 M46.4,160.7L72,150.4
	c0.5-0.2,0.8-0.7,0.6-1.3s-0.7-0.8-1.3-0.6h-0.1l-25.6,10.3c-0.5,0.2-0.8,0.8-0.6,1.3c0.2,0.4,0.5,0.6,0.9,0.6
	C46.2,160.7,46.3,160.7,46.4,160.7z"/>
</svg>
