<?xml version="1.0" encoding="utf-8"?>
<!-- Generator: Adobe Illustrator 26.0.3, SVG Export Plug-In . SVG Version: 6.00 Build 0)  -->
<svg version="1.1" id="Sun" xmlns="http://www.w3.org/2000/svg" xmlns:xlink="http://www.w3.org/1999/xlink" x="0px" y="0px"
	 viewBox="0 0 255.1 255.1" style="enable-background:new 0 0 255.1 255.1;" xml:space="preserve">
<style type="text/css">
	#Sun:hover .st1 {fill: silver;}
	.st0{fill:#A67C52;}
	.st1{fill:#A67C52;}
</style>
<script>
	//define the variables first (the elements you want the user to interact with)
	let theIcon = document.querySelector("#Sun");

	function logMyId() { console.log('clicked on an element: ', this.id);}

	//define the user events that drive interactivity (click, hover, whatever)
	theIcon.addEventListener("click", logMyId);
</script>
<path id="Sun-2" class="st0" d="M131.7,17c-1.5,1-3,2.2-4.2,3.6c-8.5,9.2-8,23.6,1.2,32.2l1.8,2.1l0.1,0.2c2.7,2.5,3,6.2,3,9.8v0.1
	v1c0,0.8,0.5,1.5,1.3,1.8c0.2,0.1,0.5,0.1,0.7,0.1c0.6,0,1.1-0.2,1.5-0.6l0.9-1l0,0l0.1-0.1l0.1-0.2l0.5-0.5c0.9-1,1.9-1.9,3-2.7
	c5.5-2,9.2-7.2,9.3-13c2.7,4.6,3.5,10.4-1,15.2c-0.2,0.2-1,1-1.7,1.6l-0.1,0.1c-1.2,1.2-1.8,2.9-1.5,4.5c0.1,0.3,0.2,0.7,0.4,1
	c-11.8-5.1-25-6.2-37.5-3.1c0.2-0.4,0.2-0.9,0.1-1.4c-3.1-10-5.8-31.8,6.4-43C121.5,19.8,126.1,17.4,131.7,17 M186.6,46.7
	c7.2,0,12.1,1.3,16.6,4.7c-1.1-0.2-2.3-0.3-3.4-0.3c-0.7,0-1.4,0-2.1,0.1c-12.5,1.2-21.8,12.2-20.7,24.7v2.8c0,0.1,0,0.1,0,0.2
	c0.3,3.7-1.9,6.6-4.4,9.3l-0.1,0.1l-0.7,0.8c-0.7,0.8-0.6,2.1,0.3,2.8c0.4,0.3,0.8,0.5,1.3,0.5h0.2l1.3-0.1h0.2h0.5h0.3h0.6
	c1.6,0,3.2,0.5,4.6,1.3c0.1,0.1,0.2,0.1,0.4,0.2c1.7,0.7,3.5,1.1,5.4,1c0.4,0,0.9,0,1.3-0.1c3.5-0.3,6.7-1.9,9.1-4.4
	c-1.1,5.2-4.4,10-10.9,10.7h-0.1c-0.4,0-1.2-0.1-1.6-0.1c-0.4-0.1-0.8-0.1-1.2-0.1c-0.2,0-0.4,0-0.6,0c-1.9,0.3-3.5,1.6-4.3,3.4v0.1
	c-5.2-12.5-14.4-22.8-26.3-29.4c0.3-0.2,0.5-0.5,0.7-0.8c4.4-9.4,17.1-27.2,33.4-27.3L186.6,46.7 M92,50c5.1,1.5,9.7,5.2,9.7,11.8
	c0,0.2-0.1,1-0.2,1.7c-0.2,0.6-0.3,1.2-0.2,1.7c0,2.3,2.1,4.4,4.2,5.2C87.6,76.2,73.4,90.1,67.4,108c-0.1-0.4-0.3-0.8-0.5-1.1
	c-0.9-1.7-2.6-2.9-4.6-3.1h-0.2c-0.5,0-1.1,0.1-1.6,0.2c-0.7,0.1-1.5,0.2-1.7,0.2c-6.6-0.2-10.2-4.8-11.6-9.9
	c2.5,2.4,5.8,3.8,9.3,3.8H57c2.2,0,4.3-0.5,6.2-1.4c0.1-0.1,0.2-0.1,0.3-0.2c1.5-1,3.2-1.6,5-1.7h1.2H71h0c1.1,0,2-0.9,2-2
	c0-0.5-0.2-1-0.5-1.4l-0.7-0.6l-0.1-0.1c-2.6-2.5-5-5.3-4.9-9c0-0.1,0-0.1,0-0.2l-0.2-2.8c0.3-12.6-9.7-23-22.2-23.3h-0.6
	c-1.6,0-3.3,0.2-4.9,0.5c4.3-3.7,9.2-5.3,16.6-5.8c0.4,0,0.9,0,1.3,0c16.2,0,28.3,16.6,31.7,21.7c0.4,0.6,1,0.9,1.7,0.9
	c0.2,0,0.3,0,0.5-0.1c0.8-0.2,1.4-0.9,1.5-1.8c0.2-1.7,0.8-3.2,1.8-4.6c0.1-0.1,0.2-0.2,0.2-0.3C96.8,60.7,96,54.3,92,50
	 M202.9,104.9c9.1,0,16.2,2.4,21.3,7.1c5.4,5,8.2,9.4,9.1,15c-1.1-1.5-2.5-2.8-3.9-3.9c-9.9-7.7-24.2-6-32,3.8l-1.9,2l-0.1,0.2
	c-2.3,2.9-5.9,3.5-9.5,3.8h-0.1l-1,0.1c-1.1,0.1-1.9,1.1-1.8,2.2c0.1,0.5,0.3,1,0.8,1.4l1,0.8l0.1,0.1l0.3,0.3l0.4,0.3
	c1.4,1.2,2.4,2.8,2.9,4.6c0,0.1,0.1,0.3,0.1,0.4c0.9,2.1,2.4,3.9,4.2,5.3c2.5,1.9,5.5,3,8.7,3c0.4,0,0.7,0,1,0
	c-2.4,1.8-5.2,2.8-8.2,2.9c-2.6,0-5.1-0.9-7.1-2.6c-0.2-0.1-0.7-0.7-1.1-1.2l0,0c-0.4-0.7-1-1.2-1.7-1.6c-1-0.4-2.2-0.6-3.3-0.6
	c-0.7,0-1.5,0.1-2.1,0.4c4.9-12.5,5.5-26.3,1.5-39.1c0.2,0,0.4-0.1,0.6-0.1C187.9,106.5,195.3,105.1,202.9,104.9 M46,109.2
	c6.4,0,12.8,1,18.9,2.9c0.2,0.1,0.4,0.1,0.6,0.1c0.2,0,0.5,0,0.7-0.1c-3.3,13-2.1,26.8,3.5,39.1c-0.6-0.2-1.2-0.3-1.9-0.3
	c-1.3,0-2.5,0.3-3.7,0.9c-0.7,0.4-1.3,0.9-1.7,1.7l0,0c-0.4,0.6-0.9,1.1-1,1.3c-2.1,2-4.9,3.1-7.7,3.1c-2.7-0.1-5.3-0.9-7.6-2.4h0.1
	c3.5,0,6.8-1.3,9.4-3.6c1.7-1.5,3-3.4,3.8-5.6c0-0.1,0.1-0.2,0.1-0.4c0.3-1.8,1.2-3.5,2.5-4.8l0.3-0.3l0.3-0.3l0.1-0.1l1-0.9
	c0.6-0.5,0.8-1.4,0.6-2.1c-0.3-0.8-1-1.3-1.8-1.3l-1-0.1h-0.2c-3.6,0-7.2-0.4-9.7-3.1l-0.2-0.1l-2-1.9c-8.4-9.4-22.8-10.1-32.2-1.8
	c-1.4,1.2-2.6,2.6-3.7,4.1c0.6-5.7,3.1-10.2,8.2-15.6C28.5,110.7,38.7,109.2,46,109.2 M176.6,153.1c3.8,2.7,9.8,8.9,14.7,16.6
	c4,6.3,8.8,15.9,8.3,25.6c-0.4,7.4-1.9,12.3-5.6,16.6c2.6-12.4-5.3-24.5-17.7-27.1c-1.5-0.3-3.1-0.5-4.7-0.5H171l-2.8-0.2h-0.5
	c-3.6,0-6.3-2.3-8.7-4.9l-0.1-0.1l-0.2-0.2c-0.7-1-1.5-2-2.4-2.9l0,0C165,170.4,172,162.5,176.6,153.1 M71.9,155.6
	c7.8,14,21,24.3,36.6,28.4c-0.7,0.4-1.3,0.8-1.9,1.4c-1,1-1.6,2.3-1.6,3.7c0,0.6,0.1,1.2,0.3,1.8c0.1,0.5,0.2,1.1,0.3,1.7
	c0.2,6.8-4.3,10.7-9.5,12.4c3.9-4.5,4.5-11,1.6-16.2c-0.1-0.1-0.1-0.2-0.2-0.3c-1.2-1.5-1.9-3.3-2-5.1v-0.8l0,0v-0.1l0,0v-0.1v-1.2
	c0-0.9-0.6-1.6-1.4-1.9c-0.2,0-0.4-0.1-0.6-0.1c-0.7,0-1.3,0.3-1.7,0.9l-0.1,0.1c0,0.1-0.1,0.1-0.1,0.2l-0.2,0.2l-0.1,0.1
	c-2.3,2.8-5,5.3-8.7,5.4h-0.2l-2.8,0.4c-12.6,0.4-22.4,10.9-22.1,23.5c0.1,1.8,0.3,3.7,0.8,5.5c-3.9-4.1-5.8-8.9-6.7-16.3
	c-1.1-9.6,3-19.5,6.6-26.1C62.8,165.2,68.4,158.6,71.9,155.6 M152.6,178.5c-0.6,2.1-0.3,4.3,0.8,6.1c0.4,0.7,1,1.2,1.8,1.6l0,0
	c0.5,0.3,0.9,0.6,1.3,1c4.8,4.8,4.1,10.7,1.6,15.4c-0.3-6-4.3-11.1-10-12.9c-0.1,0-0.3-0.1-0.4-0.1c-1.9-0.3-3.6-1.1-5-2.4l-0.5-0.5
	l-0.1-0.1l-0.1-0.1l-0.9-0.9c-0.6-0.6-1.4-0.7-2.2-0.4c-0.8,0.3-1.2,1-1.2,1.9v1.2c0.2,3.6,0.1,7.4-2.6,10c-0.1,0-0.1,0.1-0.1,0.1
	l-1.8,2.2c-8.9,9-8.9,23.6,0.1,32.5c1.3,1.3,2.8,2.5,4.5,3.5c-5.7-0.3-10.4-2.4-16.3-7.3c-12.8-10.8-11-32.9-8.2-43.2
	c0.1-0.3,0.1-0.7,0-1.1C126.7,187.5,140.6,185.1,152.6,178.5 M134.3,14.9c-7.5,0-13.1,2.5-19.6,8.5c-13.2,12-10.2,35-7,45.1
	c-0.2,0.1-0.5,0.2-0.7,0.2c-1.5,0-3.7-1.8-3.7-3.4c0-0.4,0.1-0.8,0.2-1.2c0.1-0.7,0.2-1.4,0.3-2.1c-0.1-8.2-6.4-13.3-14.5-14.4
	c-0.4,0-0.7-0.1-1.1-0.1c-1.1,0-2.1,0.2-3.1,0.6c6.4,1.9,10.1,8.6,8.2,15c-0.2,0.7-0.5,1.4-0.8,2.1c-1.2,1.7-2,3.6-2.2,5.7
	C84,61.3,71.7,48.1,56.8,48.1c-0.5,0-1,0-1.5,0c-10.2,0.6-16.2,3.4-22.1,10.8L31.8,61c3.5-2.4,7.6-3.7,11.9-3.7h0.6
	c11.5,0.3,20.6,9.9,20.3,21.4c0,0,0,0,0,0l0.2,2.9c-0.1,4.4,2.6,7.7,5.6,10.5l0.7,0.8h-1.3h-0.2h-0.8h-0.2c-2.2,0.1-4.4,0.8-6.2,2.1
	c-1.7,0.8-3.5,1.2-5.3,1.2h-0.3c-5.3-0.1-9.9-3.7-11.3-8.9c-0.6,1.3-0.8,2.7-0.6,4.2c0.9,8.2,5.9,14.6,14.1,14.8l0,0
	c0.7-0.1,1.4-0.1,2.1-0.3c0.4-0.1,0.8-0.2,1.2-0.2h0.1c1.9,0,4,3,3.2,4.4c-6.3-2-12.8-3-19.4-3.1c-9.2,0-19,2.2-25.7,9.2
	c-7,7.4-9.5,13.6-8.8,23l0.5,2.5c2.4-11.3,13.5-18.4,24.7-16c4.3,0.9,8.2,3.2,11.2,6.5l2.1,2c2.9,3.3,7.1,3.8,11.2,3.8h0l1,0.1
	l-1,0.9l-0.1,0.1l0,0l-0.7,0.6c-1.7,1.6-2.8,3.7-3.3,6c-2.4,6.2-9.4,9.3-15.6,7c-0.7-0.3-1.3-0.6-2-1c0.5,1.3,1.3,2.5,2.4,3.5
	c3.1,2.8,7.2,4.5,11.4,4.6c3.3,0,6.6-1.3,9-3.6c0.5-0.5,1-1.1,1.4-1.6c0.2-0.4,0.4-0.8,0.8-1c0.9-0.4,1.9-0.7,2.9-0.7
	c1.1,0,2.1,0.4,2.9,1.1c-7.7,6.2-23.2,27-21,45.4c1.2,10.1,4.3,16,12,21.5l2.3,1.2c-7.1-9.1-5.5-22.2,3.6-29.3
	c3.5-2.7,7.8-4.3,12.2-4.4l2.9-0.4c4.4-0.1,7.5-3,10.1-6.1l0.3-0.4c0.1-0.2,0.2-0.3,0.3-0.5v1.2v0.1l0,0v0.1l0,0c0,0.1,0,0.4,0,0.8
	c0.2,2.3,1,4.6,2.5,6.4c3.3,5.9,1.2,13.3-4.6,16.6c-0.5,0.3-1.1,0.6-1.7,0.8l0,0c-0.1,0-0.2,0.1-0.3,0.1h0.1l-0.1,0.1
	c0.9,0.3,1.9,0.5,2.9,0.5c0.5,0,0.9,0,1.4-0.1c8.2-1.4,14.4-6.8,14.1-15.1c-0.1-0.7-0.2-1.4-0.4-2.1c-0.2-0.4-0.2-0.8-0.2-1.3
	c-0.1-1.7,2.1-3.6,3.7-3.6c0.2,0,0.4,0,0.6,0.1c-2.8,10.3-4.9,33.6,8.9,45.2c6.5,5.4,11.9,7.8,18.9,7.8c1.6,0,3.2-0.1,4.9-0.3
	l2.5-0.7c-11.5-1.7-19.4-12.5-17.7-24c0.7-4.4,2.8-8.6,5.9-11.7l1.8-2.3c3.2-3.2,3.4-7.4,3.2-11.6v-1l0.9,0.9l0.1,0.1l0,0l0.6,0.6
	c1.7,1.6,3.9,2.6,6.2,2.9c1.9,0.6,3.6,1.6,5,3c3.8,3.8,4.7,9.6,2.1,14.4c1.3-0.6,2.5-1.5,3.4-2.6c5-6.6,5.8-14.8-0.1-20.7
	c-0.6-0.5-1.1-0.9-1.8-1.3c-0.4-0.1-0.8-0.4-1-0.8c-1.3-2.6-1-4.4,0-5.7l-0.1-0.4c0.8,0.9,1.6,1.8,2.3,2.8l0.4,0.3
	c2.8,2.9,5.9,5.5,10.1,5.5h0.3l2.9,0.2h0.8c11.5,0,20.8,9.4,20.8,20.9c0,4.2-1.3,8.3-3.6,11.7l2.2-1.4c7.3-6.1,10.1-12,10.6-22.2
	c0.9-18.5-15.9-38.2-23.9-43.9c0.8-0.8,2-1.3,3.1-1.3c0.9,0,1.8,0.2,2.6,0.5c0.4,0.1,0.6,0.6,0.9,0.9c0.5,0.6,1,1.1,1.5,1.6
	c2.4,1.9,5.3,3,8.4,3c4.2,0,8.4-2,12-5.4c1-1,1.8-2.2,2.2-3.6c-5.5,3.9-13,2.6-16.9-2.9c-0.4-0.6-0.8-1.3-1.1-2
	c-0.6-2.2-1.9-4.2-3.6-5.7L186,136l0,0l-0.1-0.1l-1-0.8l1-0.1c4.1-0.3,8.2-1,11-4.5l2-2.1c7.1-9.1,20.2-10.7,29.3-3.6
	c3.5,2.7,6,6.5,7.2,10.8l0.4-2.5c0.1-9.5-2.8-15.4-10.2-22.4c-6.2-5.8-14.6-7.7-22.7-7.7c-7.8,0.1-15.6,1.5-22.8,4.4
	c-0.9-1.4,1-4.5,2.9-4.7h0.4c0.3,0,0.6,0,0.9,0.1c0,0,1.2,0.1,1.9,0.1h0.3c8.2-0.8,12.8-7.4,13.2-15.7c0.1-1.4-0.2-2.8-0.9-4.1
	c-1.1,5.2-5.4,9.1-10.7,9.6c-0.4,0-0.7,0-1.1,0c-1.6,0-3.1-0.3-4.6-0.9c-1.7-1.1-3.7-1.7-5.8-1.7h-0.8l-0.8,0.1h-0.1l-1.3,0.1
	l0.7-0.8c2.8-3,5.3-6.4,4.9-10.8v-2.9c-1.1-11.5,7.4-21.6,18.9-22.7c0,0,0,0,0,0c0.6-0.1,1.3-0.1,1.9-0.1c3.8,0,7.5,1,10.7,3
	l-1.5-2.1c-6.4-6.9-12.4-9.3-22.4-9.3h-0.4c-17.6,0.1-30.7,18.8-35.2,28.5c-3-1.2-3-3.5-1.4-5c0,0,1.5-1.3,1.9-1.7
	c5.6-6.1,4.5-14.1-0.7-20.5c-0.9-1.1-2.1-2-3.4-2.5c3.4,5.8,1.4,13.2-4.3,16.5c-0.7,0.4-1.4,0.7-2.1,1c0,0-1.2,0.5-3.7,3.1l-0.6,0.6
	l0,0l-0.1,0.1l-0.9,1v-1c0.1-4.1-0.3-8.3-3.6-11.3l-1.9-2.2c-8.5-7.8-9-21-1.2-29.4c3-3.3,7-5.5,11.4-6.3l-2.5-0.6
	C136.6,14.9,135.4,14.9,134.3,14.9L134.3,14.9z M123.6,184c-31.6,0-57.2-25.6-57.2-57.2S92,69.5,123.6,69.5s57.2,25.6,57.2,57.2v0
	C180.8,158.3,155.2,184,123.6,184C123.6,184,123.6,184,123.6,184z M174.8,90.2L174.8,90.2z M69.6,92.8L69.6,92.8z M93.4,182.4
	L93.4,182.4z"/>
<path id="Sun-fill" class="st1" d="M123.7,184c-31.6,0-57.2-25.6-57.2-57.2s25.6-57.2,57.2-57.2s57.2,25.6,57.2,57.2v0
	C180.9,158.4,155.3,184,123.7,184C123.7,184,123.7,184,123.7,184z"/>
</svg>
