<?xml version="1.0" encoding="utf-8"?>
<!-- Generator: Adobe Illustrator 26.0.3, SVG Export Plug-In . SVG Version: 6.00 Build 0)  -->
<svg version="1.1" id="thunder" xmlns="http://www.w3.org/2000/svg" xmlns:xlink="http://www.w3.org/1999/xlink" x="0px" y="0px"
	 viewBox="0 0 255.1 255.1" style="enable-background:new 0 0 255.1 255.1;" xml:space="preserve">
<style type="text/css">
	#thunder:hover .st2 {fill: silver;}
	.st0{fill:#FFFFFF;}
	.st1{fill:#A67C52;}
	.st2{fill:#A67C52;}
</style>
<script>
	//define the variables first (the elements you want the user to interact with)
	let theIcon = document.querySelector("#thunder");

	function logMyId() { console.log('clicked on an element: ', this.id);}

	//define the user events that drive interactivity (click, hover, whatever)
	theIcon.addEventListener("click", logMyId);
</script>
<g id="Thunder-2">
	<g id="background">
		<path class="st0" d="M122.7,152.4c-1.3,0-2.7-0.1-4-0.1c-9.4-0.6-18.6-3.3-26.7-8c-0.3-0.2-0.7-0.2-1,0c-7.5,4.2-16,6.4-24.7,6.4
			c-1.1,0-2.2,0-3.3-0.1c-28-2.2-48.9-26.8-46.7-54.8C18.5,69.7,40,49.5,66.2,49c1.1,0,2.2,0,3.3,0.1c1.7,0.1,3.5,0.3,5.2,0.6h0.2
			c0.3,0,0.6-0.1,0.8-0.3c11.8-13.6,29-21.5,47-21.5c1.3,0,2.7,0,4,0.1c23.8,1.4,44.7,16.4,53.7,38.6c0.1,0.4,0.5,0.6,0.9,0.6l0,0
			h1.3c0.8,0,1.6,0,2.4,0.1c13.3,0.8,25.3,8.6,31.4,20.4c0.2,0.3,0.5,0.5,0.9,0.6h1.1c12.8,0.7,22.5,11.7,21.8,24.5
			c-0.7,12.3-10.9,21.9-23.2,21.8l0,0c-0.5,0-1,0-1.5-0.1c-2-0.1-4.1-0.5-6-1.2c-0.1,0-0.2,0-0.3,0c-0.3,0-0.5,0.1-0.7,0.3
			c-7,6.5-16.2,10.1-25.8,10.1c-0.8,0-1.7,0-2.5-0.1c-6-0.4-11.8-2.2-17-5.2c-0.2-0.1-0.3-0.1-0.5-0.1c-0.2,0-0.5,0.1-0.6,0.2
			C150.8,147.4,137,152.4,122.7,152.4z"/>
	</g>
	<path id="line2" class="st1" d="M215.2,122.3c-4,0-7.9-1.7-10.7-4.6l-0.6-0.7c0,0,0-0.1-0.1-0.1c-2.1-3.1-3.3-6.8-3.3-10.6
		c0.1-10.5,8.6-18.9,19.1-18.9c0,0,0,0,0,0c0.6,0,1,0.4,1,1s-0.4,1-1,1c-9.4-0.1-17,7.5-17.1,16.8c0,3.3,1,6.6,2.9,9.3l0.5,0.6
		c2.4,2.5,5.7,4,9.2,4c6.8,0,12.2-5.5,12.2-12.2c0-6.8-5.5-12.2-12.2-12.2h-0.3c-3.9,0-6.9,3.2-6.9,7.3c0,4,3.3,7.3,7.3,7.3h0.1
		c1.8,0,3.3-1.3,3.5-3.1c0-1.7-1.4-3.1-3.1-3.1s-3.1,1.4-3.1,3.1c0,0.6-0.4,1-1,1s-1-0.4-1-1c0-2.8,2.3-5.1,5.1-5.1
		c2.8,0,5.1,2.3,5.1,5.1c-0.2,2.9-2.6,5.2-5.6,5.1h-0.1c-5.2,0-9.4-4.2-9.4-9.4c0-5.3,3.8-9.4,8.9-9.4h0.3c7.9-0.2,14.5,6,14.7,13.9
		s-6,14.5-13.9,14.7C215.7,122.3,215.5,122.3,215.2,122.3L215.2,122.3z M133,65c0-6.1-1.8-12.1-5.3-17.2l-0.1-0.1l-1-1.1
		c-4.5-4.8-10.7-7.5-17.2-7.5c-12.7,0-23.1,10.3-23.1,23s10.3,23.1,23,23.1c0,0,0,0,0,0h0.5c8.1,0,14.2-6.4,14.2-14.9
		c0-8.2-6.7-14.9-14.9-14.9h-0.2c-4.6,0-8.6,3.7-8.6,7.8c0.2,4.3,3.8,7.7,8.1,7.6c4.1-0.1,7.4-3.4,7.6-7.6c0-0.6-0.4-1-1-1
		s-1,0.4-1,1c0.1,3.2-2.4,5.9-5.6,6c-3.2,0.1-5.9-2.4-6-5.6c0-0.2,0-0.3,0-0.5c0-3.3,3.4-5.8,6.5-5.8h0.2c7.1,0,12.8,5.8,12.8,12.8
		c0,7.3-5.2,12.8-12.1,12.8h-0.5c-11.6,0-21-9.4-21-21s9.4-21,21-21l0,0c6,0,11.7,2.4,15.8,6.8l0.9,1c3.2,4.7,5,10.3,5,16
		c0,15.8-13,28.6-29.1,28.6S72.8,80.8,72.8,65c-0.1-5.6,1.5-11,4.6-15.6c0.3-0.5,0.2-1.1-0.3-1.4c-0.5-0.3-1.1-0.2-1.4,0.3l0,0
		c-3.3,5-5.1,10.8-5,16.8c0,16.9,14,30.7,31.1,30.7S133,81.9,133,65z M122.6,28.9c-17.7,0-34.6,7.7-46.2,21.1
		c-0.4,0.4-1,0.7-1.6,0.7c-0.1,0-0.2,0-0.3,0c-1.7-0.3-3.4-0.5-5.1-0.6C68.4,50,67.3,50,66.2,50c-27.5,0.1-49.8,22.5-49.7,50
		c0.1,26.2,20.4,47.8,46.5,49.6c1.1,0.1,2.1,0.1,3.2,0.1c8.5,0,16.8-2.2,24.2-6.3c0.3-0.2,0.6-0.3,1-0.3c0.4,0,0.7,0.1,1,0.3
		c8.1,4.6,17.1,7.3,26.3,7.8c1.3,0.1,2.7,0.1,4,0.1c14.1,0,27.7-4.9,38.6-13.8c0.7-0.6,1.6-0.6,2.3-0.2c5,3,10.7,4.7,16.5,5.1
		c0.8,0.1,1.6,0.1,2.4,0.1c9.3,0,18.3-3.5,25.1-9.8c0.5-0.5,1.3-0.7,2-0.4c1.9,0.6,3.8,1,5.7,1.1c0.5,0,1,0,1.4,0
		c12.2,0,22.2-9.9,22.2-22.1c0-11.7-9.1-21.5-20.8-22.2h-1c-0.7,0-1.4-0.4-1.8-1.1c-6-11.5-17.6-19.1-30.6-19.9
		c-0.8,0-1.6-0.1-2.4-0.1h-1.3h-0.1c-0.8,0-1.6-0.5-1.9-1.3C170.5,45.2,150,30.5,126.6,29C125.3,28.9,123.9,28.9,122.6,28.9
		L122.6,28.9 M122.6,26.8c1.4,0,2.7,0,4.1,0.1c24.2,1.5,45.4,16.8,54.5,39.2c0.5,0,0.9,0,1.4,0c0.8,0,1.6,0,2.5,0.1
		c13.7,0.9,25.9,8.8,32.2,21c0.4,0,0.8,0,1.1,0c13.3,0.9,23.4,12.5,22.4,25.8c-0.9,12.6-11.3,22.4-23.9,22.5c-0.5,0-1,0-1.6-0.1
		c-2.1-0.1-4.2-0.6-6.3-1.2c-7.2,6.7-16.7,10.4-26.5,10.4c-0.8,0-1.7,0-2.5-0.1c-6.1-0.4-12.1-2.2-17.4-5.4
		c-11.3,9.2-25.4,14.2-39.9,14.2c-1.4,0-2.7,0-4.1-0.1c-9.6-0.6-18.9-3.4-27.2-8.1c-7.7,4.3-16.4,6.5-25.2,6.5c-1.1,0-2.2,0-3.3-0.1
		c-28.6-1.9-50.3-26.6-48.4-55.2C16.3,69.2,38.9,48,66.2,47.9c1.1,0,2.2,0,3.4,0.1c1.8,0.1,3.5,0.3,5.3,0.6
		C86.9,34.8,104.3,26.8,122.6,26.8L122.6,26.8z M90.3,145.6c3.8-3.8,5.9-7.5,6.6-11.4l0.4-3.3c0.1-4.8-1.7-9.4-5.1-12.8
		c-3.2-3.2-7.5-5-12.1-5h-0.1c-4.5,0-8.8,1.8-11.9,4.9c-6.6,6.7-6.4,17.5,0.3,24c0,0,0,0,0,0l0.2,0.2c4.2,4.2,10.8,4,15.2-0.4
		c4.3-4.3,4.3-11.3,0-15.6c0,0,0,0,0,0l-0.1-0.1c-2.4-2.4-6.5-2.6-8.8-0.3c-2.3,2.3-2.3,6.1,0.1,8.4c1.1,1.1,2.6,1.7,4.2,1.7l0,0
		c1.6,0,3.1-0.6,4.2-1.8c0.4-0.4,0.4-1,0-1.4c0,0,0,0,0,0c-0.4-0.4-1-0.4-1.4,0c0,0,0,0,0,0c-0.7,0.7-1.7,1.1-2.7,1.1l0,0
		c-2.1,0-3.9-1.7-3.9-3.9c0-1,0.4-2,1.1-2.8c1.6-1.6,4.4-1.1,5.8,0.3l0.1,0.1c3.5,3.5,3.5,9.2,0.1,12.7c-3.6,3.6-8.9,3.8-12.3,0.4
		l-0.2-0.2c-5.9-5.8-6-15.2-0.3-21.2c2.8-2.8,6.5-4.4,10.5-4.3h0.1c8.4,0.1,15.2,7,15.2,15.4c0,0.1,0,0.1,0,0.2l-0.3,3.2
		c-0.6,3.4-2.6,6.7-6.1,10.2c-0.4,0.4-0.4,1,0,1.4C89.3,146.1,89.9,146.1,90.3,145.6L90.3,145.6z"/>
	<polygon id="thunder-3" class="st2" points="98.3,246.5 159.6,168.7 135.7,168.7 175.5,112.3 129.5,114.2 91.6,190.1 111.8,190.1
		"/>
	<path id="fill" class="st0" d="M139.1,117.3c-1.8-5.1,0.9-10.7,6-12.6c5.1-1.8,10.7,0.9,12.6,6l0,0c1.8,5.1-1.8,11.1-6.9,12.9
		l-0.3,0.1c-10.4,3.7-21.8-1.7-25.5-12.1c0,0,0,0,0,0c-3.7-10.4,0.8-21.5,11.2-25.2l0.6-0.2c16.8-6,35.2,2.6,41,19.1
		c5.8,16.7-3.1,34.9-19.7,40.7c-8.5,3-17.9,2.4-25.9-1.8l-5.6-3.4c-6.7-4.9-11-12.4-13.9-20.8"/>
	<path id="line1" class="st1" d="M147,148.9c-5.4,0-10.6-1.3-15.4-3.7l-5.6-3.5c-6.2-4.5-10.8-11.4-14.3-21.3
		c-0.2-0.5,0.1-1.1,0.6-1.3c0.5-0.2,1.1,0.1,1.3,0.6c3.4,9.5,7.8,16.1,13.6,20.3l5.5,3.4c15.5,8,34.6,1.8,42.5-13.7
		c0.1-0.2,0.2-0.3,0.2-0.5c3.6-7.3,4.1-15.8,1.4-23.5c-5.7-16-23.5-24.3-39.7-18.5l-0.6,0.2c-4.6,1.6-8.4,5-10.3,9.5
		c-1.9,4.6-2,9.7-0.3,14.4c3.5,9.8,14.3,15,24.2,11.5l0.3-0.1c2.4-0.9,4.3-2.6,5.5-4.8c1.2-2.1,1.5-4.6,0.8-6.8
		c-1.6-4.6-6.7-7-11.3-5.4c-4.6,1.6-7,6.7-5.4,11.3l0,0c0.2,0.5-0.1,1.1-0.6,1.3c0,0,0,0,0,0c-0.5,0.2-1.1-0.1-1.3-0.6c0,0,0,0,0,0
		c-2-5.7,1-11.9,6.6-13.9c2.7-1,5.7-0.8,8.3,0.4c2.6,1.2,4.6,3.5,5.6,6.2c1,2.8,0.6,6-0.9,8.5c-1.5,2.6-3.8,4.6-6.6,5.7l-0.3,0.1
		c-10.9,3.9-22.9-1.8-26.8-12.7c0,0,0,0,0-0.1c-1.9-5.1-1.8-10.8,0.3-15.9c2.2-5,6.3-8.9,11.5-10.6l0.6-0.2
		c17.3-6.1,36.3,2.7,42.4,19.8c2.9,8.2,2.4,17.3-1.4,25.1c-3.8,7.9-10.7,14-19,16.9C154.6,148.3,150.8,148.9,147,148.9z"/>
</g>
</svg>
